<mxfile host="Electron" agent="Mozilla/5.0 (Windows NT 10.0; Win64; x64) AppleWebKit/537.36 (KHTML, like Gecko) draw.io/26.0.4 Chrome/128.0.6613.186 Electron/32.2.5 Safari/537.36" version="26.0.4">
  <diagram name="Page-1" id="zoYZXqN1iEVXM0R22iAL">
    <mxGraphModel dx="2072" dy="1614" grid="0" gridSize="10" guides="1" tooltips="1" connect="1" arrows="1" fold="1" page="0" pageScale="1" pageWidth="2336" pageHeight="1654" math="0" shadow="0">
      <root>
        <mxCell id="0" />
        <mxCell id="1" parent="0" />
        <mxCell id="2GjTwDZbmCHKGKUoSUDR-1" value="&lt;font style=&quot;font-size: 20px;&quot;&gt;&lt;span style=&quot;&quot; class=&quot;hljs-type&quot;&gt;double&lt;/span&gt; &lt;span style=&quot;&quot; class=&quot;hljs-variable&quot;&gt;result&lt;/span&gt; &lt;span style=&quot;&quot; class=&quot;hljs-operator&quot;&gt;=&lt;/span&gt; &lt;span style=&quot;&quot; class=&quot;hljs-number&quot;&gt;1&lt;/span&gt;;&lt;br&gt;    &lt;span style=&quot;&quot; class=&quot;hljs-keyword&quot;&gt;while&lt;/span&gt; (n &amp;gt; &lt;span style=&quot;&quot; class=&quot;hljs-number&quot;&gt;0&lt;/span&gt;) {&lt;br&gt;        &lt;span style=&quot;&quot; class=&quot;hljs-keyword&quot;&gt;if&lt;/span&gt; (n % &lt;span style=&quot;&quot; class=&quot;hljs-number&quot;&gt;2&lt;/span&gt; == &lt;span style=&quot;&quot; class=&quot;hljs-number&quot;&gt;1&lt;/span&gt;) {&lt;br&gt;            result *= x;&lt;br&gt;        }&lt;br&gt;        x *= x;  &lt;span style=&quot;&quot; class=&quot;hljs-comment&quot;&gt;// Square the base&lt;/span&gt;&lt;br&gt;        n /= &lt;span style=&quot;&quot; class=&quot;hljs-number&quot;&gt;2&lt;/span&gt;;  &lt;span style=&quot;&quot; class=&quot;hljs-comment&quot;&gt;// Divide the exponent by 2&lt;/span&gt;&lt;br&gt;    }&lt;br&gt;    &lt;span style=&quot;&quot; class=&quot;hljs-keyword&quot;&gt;return&lt;/span&gt; result;&lt;/font&gt;" style="text;html=1;align=center;verticalAlign=middle;resizable=0;points=[];autosize=1;strokeColor=none;fillColor=none;" vertex="1" parent="1">
          <mxGeometry x="77" y="72" width="317" height="228" as="geometry" />
        </mxCell>
        <mxCell id="2GjTwDZbmCHKGKUoSUDR-2" value="" style="shape=stencil(7VrJch03DPwaXVEkwfXsOP/hKsuRKorlkuUsfx8wEkfDhl6rdMvBNy3sGYJoAA1wrvTD95tP366vUvj++HD/+/Vft58fb670l6uUbr/eXD/cPtpPV/rxSj98uX+4/u3h/sfXz0+/f/s0V86f/rj/cz7h7ydcDNLzRKXwz/NfskT97y+/PgHubr+eAVFC2wFJYqeAFndAkBgJIEnrG6BLzGR9llK29VUSe36Vodv6LDmR9UO0buuTjHF5fYrSw26wtEbW2+t3F5hPyP41SmqwPgSyPsuosJ/Ant8k7ftRiZWs71IjnH8m/tIhDc7HNkQol4NkAFQpxOJ8HODhMeMUcVmOEvc3pCGVkNre0HYOqbGKHepYHDhIl2kU2Kk+k3IBSqSBOTew21CaKHtDwTir6S1A3IlRK2dGlr4bXbt0Emr2Bgi1FqQWarTuRjeLPnZKQ8JuQ1MJxIacpAwEVGJD7pheDMDiv6hk94ZGtlSOQzwBCqF3zZizDZCIDXVIBhsSNbpZDovODyQJtLFy1gkQyBu6ripzogYrC92yENB7rMT2OmBg3jO2JuKHEUV3P1RLnYStQ0UhHgrdkgEalDarPYRLEwBbCtQPQ5HexTIfya3Tho6ASMhnAPCD8XcQT4+D/SdAZX7Ii8wnQCZJwADdAajjihQHiMwGl5cMwNLMaBLGOwHdnRKrD6NLae8yeqzkfj5WxqWBQmA6jrF1SHdGD2bDkOHIlxhbOxZ2i4fE2Oo8bRGXiRIYadWbA5DXJl8HBFEANBoPvaF0sFTJyNcLCuKZngmX+lHRDkCjEdfjUsCHRA9SiOPmv3c/dF6BrD6knXxmVSZsbV0UttSWTn4d0JayOACd6u7mBJa5shMutYLp3sjC1IxVtLH7wTIV84OVD3Cc8bczrdFRGVumYgWlBJQOg2e+qYwTAlhMqwcM2o9Z+wJKwACNtawJU+VMPMQPFUvczDuEGWll6pcOl7dkEdXSfAHxQsAcMw0gvAiOeEfPdWF9cAZnwuyA4s3Ws1gLqzKd1gdSScJKVycOMRVjcVNwfSX7j1Lc8yt1MAiMWUzZCGDR6/x81sZgg2vrWcugLor7OoHXg3L116fzj+T5GZukyQc2YsAh0osUuGRvwfWdPD+t8DvHC4l485cPYMqH6s6Hrw9+PzS+iosX1uEFVF62vtD48vGoNF6Cez5L6k6yTL4R/wZULJPPbIQn6uOF+hftfSse37e+Ov7w/ViFqcO9gM38As4IDZBZxPgUyvsDHUs5HIBGJVrurihVOgMrFeW+iQ8mM6sbpZi8YQOn2bADINE3NNeRW4/O5H5LyNTOB3/NDWtMNRYmZPM69ZMuZeNXU42oSwudZ5suhSlbT7QDaUffd1Lv9JQGTjtNPCsBWH+QXQcSSYGybgDnR4FqutnjwCil0T7NTh3IZ30aq2mTCPCGyLvZn5ORZ8DPycj/fzJyalFOoxEmCl802ikgWLM5XAmqurrJSwDQwRajymYpbhJuHTETkrMGwkC1cW4Yv2GK3FdzdXEeBGljrHdeyjMgDt+487DUB2LDyh4b2Vo2TpBcrRLzigJ3T02p0S1ig2H5ng22zU04zc98DjHwktTqJAu5otjjGaCRxJS7u+gpVLTmjGydpZvfY+JcrlCZrgULxCyjpKJowqth8zS9NIwYom/UXQNkd0nSSIgaAG57a10J/ZINCtfJiY4K1XXPpVHB5K8li/GX3zLG3XHmewpo2CDaI9iocN65wzcGY302cWlLkIxT4hefFWvWvERnjnO3vTHSDz3MD5juafwYM2CeqvRy2E6k79EQ6aV+KjgVSvz5ijJA+dQvYpdYqPKJA1u4ShNSdLWq0wl4dP1YDHQqZwBIwtbHJtbm1vXJwgHI/NufinEQueiOBfsxA7BJkgFg7G8Alo/s38NtiSkr+7dCHBR6Ux3dHewEMD8ojl8ngChcc1NuDsBOKb5mNPODa+DmsTLyuS9o5mdZzIaACnceNHvDu79UextgP7x8GPfl9u7u6bu68//xQzr709NHePrxXw==);lineShape=1;strokeColor=#990000;" vertex="1" parent="1">
          <mxGeometry x="370.4466796005622" y="61.14239185959127" width="73.88853279095406" height="212.31908201596264" as="geometry" />
        </mxCell>
        <mxCell id="2GjTwDZbmCHKGKUoSUDR-3" value="" style="shape=stencil(lVjLbhsxDPwaXwlJ1IvnNP2PAHEao64dOEkff19uXW1WlHcWuW0cjiRyRtRIO757fX542e+Ce327nL/vfx0e3553/GUXwuH0vL8c3vRrx/c7vns6X/bfLuf30+P175eHKXL6+nH+OY3w+4pjEp5Awf25/iBCTv798vUafzycFvGBYujjE6W0Hu+o+C6+CuWM4l3s45kyHN+5Lr5kSoziUz9+8SR1Pd5Tql18zlTA+plCP352VP16fCLu65kiOTB+abO3+JgpFrB+Tbh0AK4UwQRe691XlB3lCACFXE+xFsEBCpQD6XPwiSrgWIuU+iUJJcSBb/PPRWqs344vxH0GukKwB2KkXEz8fxXe5jhQkT5huGeyp2BEATWR5y01j48pK4VSn7CSiERRI3GfsZY0Ao51l4uRndYU5Cw6Q+oBuc15G1DskqKjgACzaGYAN+WuAUq1AJS0AkwzVaUgYXg3tK9JW4CIaQqzJu0ggGoF1GIBgmfIvVinDgM6pAJisoAaIMBXC4DaqCR+mAFRXe2GUEBCOcw9cQHwgDkFMNuyJgwIpqwRV6k2XhcAj6sUB7miNjlVaQBsJG31HbaYDt4C0Ok5aalagGzsUW9z2OgCVSygoqSlnQULHlAXuLWpE3mchAQL2CjT6AIYE2FsjwIKbmWhWIBggE06t6zWxFTGJWH1fRKQm3NcUJ2RNtgCWKB501OOjVfaOBaZijlHC7Qa6mZNv1fvgPaoeoHQ5+D1ZAUz5MGN6S7HZsaYnwStg+6WYopKgs2YGV/7JGjdavaMX63wQAzZdm51vB4koAU3DcBrjZGDrta+6ZyoJylD1ixxsx63AaH1k7lGcxVuK9sa6CjwVlXsYZXUHyJR2PaSVXRIFK2Ac7xgksn1GlIHG0BzCYOmA1wP201Tc7s2ra2/J0wcPESSdZKT3YW3QhniUfdVs9IrTm/l6AKg8T2/2isjqGe2jk1w/XN7Q1jEo1t2Gl4hKuzUyZ76Mre9lfg4vHJkuB4/xKP6x8b+xwUMXwmj9TmCN0AcCBAo0M8+62zH68fHG9LT4Xi8PkEt/2/fnPSn63sV3/8F);lineShape=1;strokeColor=#990000;" vertex="1" parent="1">
          <mxGeometry x="383.0278145502632" y="11.377443632244422" width="160.20255836509546" height="65.17232404789331" as="geometry" />
        </mxCell>
        <mxCell id="2GjTwDZbmCHKGKUoSUDR-5" value="" style="shape=stencil(lVfZbttADPwavRJLcs/nNP2PAHFqo64dOE6Pvy9VYWMvbU2RNx0z4jUkV5M+vG2fXjeThLfz6fh982v3fN5O+mUS2R22m9PubFeTPk768HI8bb6dju+H5+X+9WlGzlc/jj/nL/xeeLFSKjNLwp/lCVOs/x58XfD73eEKn5lSG/CVWNbxpZCMeK4U8zqhZuIwECSRpnVCiyRjBJop6jqBQ6AwmoiJGmC01nPSCTlQKyAI7TF2QonEIK2FKceR0EhBmhL31x91yJR5naCJwliIJhTjOsGEwDoSKhVggTNVR2hUgTZYSKInNCQmqtl71EBW400EBYqVe0I+8JESwIeblNoXgFQDyai7WkkAnqmMsqupZ2wlXieiKlQA3nrf+cMUUIWFWhoJFhJqtdLzd0VA42UOOXqXUAg2HNj1gVJFFgpF55I1Duhly5K6LJmsQZbMQh7LZp3WGowhj2ltqSv9PkF8DNYIjOpgMbDvtAQssFJxa+EyNe/PSJLsLUSAT35qW29WEIL43rEc4V7TmyIk4M/NTrAqK+oFv6ZMRgK+rz3fVzpF/hQ/uypezJ/FW8HaGEAxVYGA7aTgZJ0T7IMc++tOSK2r6n4I4ue72QyAkE3W4wDWBufR7MBoQXAvmwMydpoJBR0VbM06nXIkRQQldgckpYAIdlRwBIbnHQ1+jTTKYKsZ3g3tAve+4duIT3DtWwBui0QKYMTrTeuYUME4tRLkEc99Nt3Hf5xgOz7gRrB8NodHkzGa/+rxYHLF3I+KF3xC+E8e4f+Pt4vL/8LLbr9ffjeu3/v/C3u0/Jvo418=);lineShape=1;strokeColor=#990000;" vertex="1" parent="1">
          <mxGeometry x="522.6605038927669" y="19.401000734049717" width="19.434118788607293" height="27.808248167987813" as="geometry" />
        </mxCell>
        <mxCell id="2GjTwDZbmCHKGKUoSUDR-6" value="" style="shape=stencil(7VnLbhw3EPyavTZINtkkz7bzHwIsR4vIkiHLSfz3rsmG42HPTskCDPji2z7YQ/ajuqs4J33z+e7m0+0phc/PT49/3f5zfv98d9K3p5TOD3e3T+dnfDrpu5O++fD4dPvn0+OXh/eX759ulpXLp4+Pfy9P+PdiF01qXqxS+Hr5pWVJ7b9f/rgY3J8fNgapSi2zQZGSjw1ylBS9Qddjg6KizR8ph2MDS1LrbBCoQU2ifTKoRVolBkV0jpJVCUZ3CPMOpUtlPmTpNhsksUiihKjPO+QsjeyQVZb/NgZaJZJMa5Y4J04T9SEFabNBMgkk0zFKnZ1OUSIJq/qoxiKJrv//vJv1RjyIvpCiDpeurg9SZoe/e3SwPszn6VLo8jQfp44yPDi9zk9HcEj0deRmTa9oIQUn6mJDQ9MkzssDrR0ELvn1gRRnzFKCX8+eX8XMrc/E2yW13t1M3F2iOa9P0ljwAaW5dABGjl6bm+ILpYkuanPLeiGipt5j5NCIQUW9zSFVk8YMqs8xvCqJ1FAZ3WCt6CidZK0HMdd228j7dQN00XmamUkmeevqW0TtosRg+dtNs0Z3sDJguDYJAJNlOnhkdvjAGruNJrga8EyjuLM7UpfeiQ++EzWTxNC5Dvg1qo1W98JC3AQH3khl5DRIyibRleyQEaQ5qkiMEZ9RmqHsDBjPWdvz5kiMSaGW3bi0JkrwY2iqLkphxO2ISTk4VKVOw8AnjofVwkjTBj8vOB0cfjB4WB6yh0PTMSuO8ON4zkKBWS8uOwqslNGCAnuSjfZPEqfNTzcwWoZQQNo5DQAFElZF45vDCo7LGK2uCN4gLhDODB/ivIP1ccijKLmuAZKdGKYBIIdprixy95zZuHbBEG3OwCQyTFc/puGDkR2Ah7KLUmcASkOebfJAlUXy3R6ZphCNntWilpgPkDYxeYgyZVGKH9MAUGDc87UGS7t3TQBTl/gAJp5nH7rSNgN+l3ZOM3YOOeVGFjBNfWi+lkCgqHDuvmvUTIcixkefAYT5kHi7d6TSuOBBM7adrGUMDhB1EgmDOJMdkGnX+bSP+j3qfHkOqyq9LYDyMSdrK40SRGZz1DtyQvZbprLgvFamzgX3okz1svAny9Tc/fpfLFPdjQuVqYiP56iUQObgSx+lyUp5z9YWl9g4K0MMbS6ZClOd5co1FuO0bScVQGWYru1x/L32rEbnX68e8IVri0VuOZago7Cu11HYYRhynSrhOlTplpiTUoLWznMpQeQxqIFFOCd6osi33d10X3+5Xkwrq97o1MIoZ9hdKAYO0JS9pIJ2ZmwK9a/uTHUwh6MWE3XnNbv08C2scxZcpbjnZ5o383ffYEZsIhffwoCPzrLmpxMqS+nzuyNejV5827jaX9dXOkGaJ9ioa3Y1F3dFtNxbsQwnr4yWFxykTJcpsntJwxrMq9/q/IABPnx/ifThfH9/eQe1/d+/dMJPlxdW+u4b);lineShape=1;strokeColor=#990000;" vertex="1" parent="1">
          <mxGeometry x="524.9395482648133" y="18.526844448263546" width="23.024085568782084" height="33.358937125216585" as="geometry" />
        </mxCell>
        <mxCell id="2GjTwDZbmCHKGKUoSUDR-7" value="" style="shape=stencil(3VjbbtswDP0avxKSSN2eu+4/CjRdgmVJkWa3vx+9wF4oJac1MBRb3hyHR6YODy/SwHcv64fn1RDcy/Gw/7z6vnk8rgf+MISw2a1Xh81Rnwa+H/juaX9YfTrsv+4eT7+fH0bL8enL/tu4wo8TjplCHlHB/Ty9SYGK+/3m4wmw3ezOAL5QFgtgSgEA4rTeDBByCOCp1vYLXq4DCknzAUcxXbePFOwOYiIBDgXKdv3oqIL19d9g7EUoemTv7PqcSXiJvYP8dP4EJpcX7NcnGGHlM1p7Tx7w08UrL9SDkIDt9oJjKAeJlOz6+kFAf/ZUirF3VID/JRBLY+9AhhVl2zX2tVy3r46Sb/ZbQHirTGqZ7AtF4E9N0+dnfmTy8DKgULU1RRktIAG86yQdKmWkiR6hSVNAlHunNO4Z0dRtO4ZJiG/kNVZyiwKnhS4DnnplpAQj0UsvZYrAJS3+bHM5Fyog2TSyzAZQK5UIszOkFiAAUCeHZ/tIDMIgk/hndRfyqKFRknbHDKtpCC2lHkjVUbaMRq03oLxoQ7YxVp2iap0pWH44UUTlMVC05U7bB6p32vGjjVh4RRPShky/IEB13CfzXJMvA6QVkTBVEGTlpOmBUSbeLgNy2xRShBVpZL3patrWUJx54mQWKgYo67VJNa3DqI/zhdz0KDdzOwye1dlrvZktTVWzAWwiEVuWtAiicqFitVsoHo6nriU1q7hhNrMVktZsASU4kLfrS4H2Khq7PmtPAMr2blLZDAhwGPRztp+1ThSBxQBte6mb75Z1nRsYeCLq/H9p4FmGeJ+BB8XhBgaefpjXL+RFpwVtDAkPPP/e+beZSG7g/Asi8A7nX6u5/+v829/oMAxvf2UklNEoldq5JUI6RXtyM8HDAV5Hv4ZPHXFRGdIULk3AMjEQqGgNsRkzUopcKpOAzyQa0KGlB2QM6FzSJFu2ac3iALKgp1UPLnDTXdzGWWqRMJJfqLxXLivfANCHP3ejT5vt9nS1ev5/e5eqr073sHz/Cw==);lineShape=1;strokeColor=#990000;" vertex="1" parent="1">
          <mxGeometry x="522.059578197681" y="41.46576313503704" width="14.246931789168684" height="7.500097515977359" as="geometry" />
        </mxCell>
        <mxCell id="2GjTwDZbmCHKGKUoSUDR-8" value="" style="shape=stencil(lVjZbhw5DPyaeSVEUedzjv8IEGc9WMcOHGePv99qDNQ7orrLyNt4hmWJZJEs6mIffj5++fFwieHn2+vLnw9/X7++PV7s4yXG6/Pjw+v1DZ8u9uliH769vD788fry6/nr7e8fXzbL7dP3l7+2//DPDWdJcthQMfx7+yZIuH3x+Wb/dH2+s09RkrfXfG6fVUpx9j2e2xeVmib7KEXP7WuUMNtnqeQ+TcV0su/SjNh3CfP9NY0bHgI6fq6zA0FyI4AmyWZAESUh0rCnaCAsSi7kiC5lDpI1moVexWZAStI7AYAWeU5DkEa8bllKnwF5MOU40VW0zYAuRjJdivQ5EeBWY1Qt0hzAJJFUpyJ1zlxJEonTVgbX7gCJsC9Wyd0DlAAUMYmLDySsisQ5p1FwleRBNCxRJQ0jjPvuaWsSCJMWboNIhcS0DubvTC2Syf1RvmVmasrjm+McJN8BUh/cPQagoB1TbQT5mBYmmnyMGiGeVd/ESpZAumQKI0cDUFUiA5j0OUqoP2NzoYy2OwDotI1ECYPBtZhWpZIroT+4eu6B9qSttubi6TrIe0yl7Fs3un8jxQMXswM03uuDxLka0AcboUbfg3gHyISt3XzH2Dotu1Ie83sHFInshOIVABIXSVgxTGL0UUp8+mRb8vDOCY4aOqbFqQ+OGpFfKS8n2AjDWR7cbIAwYMKqL0IGAGXUCGLLlVjFIeqOSwAoA1RfD7ikkr4EgDpxFejIBcB1e2Q6cYATS/CK1TR+dlECvTsXfFU9IPASdSN3qzjSyBD1sDSBzMRV8hp6uxI7oSwnFJoHFFBwTleu96ovIMTNSFg3wBwlUKMyAG7suBSHV2clWt0JNuh4Fta1pmmUfhfQktisBOBVJWHFkK1zPWA7MKZ+gpfR0PqZNDIMRUfvu3XieO6mISDvjyCJSIs62dotuRPERpxH0NZnmI5unkyooEiuZCgwJzbCkB/HgChxjmtNdLJD9LU5SmXfHM9k5bptNBIlKGPXjTPvlWpDaN/p0M70zxjju32iedNlxmGFYp1vWwbmvOVKlz5cqbsrtdF4zjas0jyASWmI/148oBCnIUOTLj6Q+bBVnPNhP/M4DeZnHPLG1ntw2QMCjRKqpc7MSO8OxTJzL0X+CqKerLYP4tMHhDkP2Ioy00vq6wclyPYH+OC6dzQ649C9nV7Cds06ZW2+gLBsssGOFuGWJsVKQ7pMCYv2pioUPHDsxqAn/x9ZVdfF6OuBLROx0LUSOTX//5l62961XMMYquDYHrRz5U9ZB3t1hUDns4WlcOhTHeyLe6mj43yzd2+B4+XuzL7N/qp0Hh8zZx9ZftXzJwyRdZYvNxHC0AJnfHDbaqBa+3dfq9+3x4f/n8a/XZ+ebi/r97/7p3R8dXuGt0//AQ==);lineShape=1;strokeColor=#990000;" vertex="1" parent="1">
          <mxGeometry x="593.1737022355728" y="95.0314333448564" width="46.60912773592872" height="56.93580827528467" as="geometry" />
        </mxCell>
        <mxCell id="2GjTwDZbmCHKGKUoSUDR-9" value="" style="shape=stencil(7VnLbhsxDPwaXwlRoijpnKb/ESBOYzSNgyR9/X25ceWsuOsxAhQtCuTmOBprSQ6HI+0mXTzdXj1sNzE8PT/uP2+/766fbzfpwybG3f3t9nH3bJ826XKTLm72j9tPj/uv99eHvx+uppXTpy/7b9Mv/DjgGkmbQDH8PHwRqfDLFx8Py+9297PlLKTjei5UAwA00jgAklBspwExUQwDQBolBMikI0CZNAOAUuMBUAJxhIA0xlAyNbxDFg9gDEh1sUOFQbcyApQK2iFTSiOgkCQAEMrBA37veapwPuja91wHRM89A2RAvsgk7AGCshQoFQ+ICtkq4oOuIK1cO9VmgAiyZICwKFxGgEJlQb6CAa7jilATAMhUdWygRgzSyka1MUuaiEGLWlp5zFIu/SdOcSmMbM2RGuKSpdWpRu10XAWkRDrGIEIVxCChy9YRECkCtsqCGvYTSFstJzF6gAJtVROysHgkIGTGnNp80ALoXVPXuSPguOcqoDEFl9bWe3B9h+xlxgACYpgAI1st0Yx2UAq8iAEDqgNkGHQtfqAYICBA6yo0qwOSymbMGeeDJNjTLXrlM0BFgGWlpZdyHZB7mWaAjGJQbx0sSxHITDONcNRQiuiRajcKR0CB5DNAcYUz1QAiYDGEcYec4HywtJZRyKxpYR3iymAXoBq2g6N3la7n6wDpZqcDrJQJAYwaY9BNoXobII2PZIkOKIZIPGapNUy+4D2fAQogX61Ux7RyCLhHCzH7LeoZYYoegNTY6uRUwNIUsRrLGIS1SEA7JD9RrNQKSl0XHs7YklCWbH64QpgVQIDsm3oqPlLj4s23zRgFZDJxDdUDBDV16CeYGQBVehLXRQwZq4DTSvtG0Q7ix6h901AHSc/6rEfRMcseILumLjCtU4iOfBW2nCWRXQwNZskKJ+oBDbG1+IkyAZAKaG+XGUAQ+cS7RAsaks/qWn1azzis6HZQeBh9O2BROOvBgLJkDTnWwUYQGtSVfQPpGcO0OPllhQeIf+USUdDvLvHvuUTk4f6MS0T+Z9UlovPxq7WY0ZXRMzV//5Olh3XSV4475IoHtfbbnhkggLyW5jsoY+9QFlPRvLGAoNX8j3skhtywA7KziTnAUht1HL8NUIF8J/X3P2fqEJu/rdQAVSAu/I/aREE3G+93iS+A97vE/+IusXbHNrtbR2dFA7ie1giP4Jx7mWY9DYNm739ShkNOvf1hfLYM3bocxR6eHhazwWYqXt7ccnSUDt5DRygW7H+du3icWN7GYgUsFJ0rr8vRmcSshLrlyFtkPz7wgV59/wZ4yV38vMQsq14SGea9+ftt7vcTJ5a/6S3d2eX24fWF4M3u7u7wPnH+f/8C0b46vHxMl78A);lineShape=1;strokeColor=#990000;" vertex="1" parent="1">
          <mxGeometry x="636.20676546405" y="47.81101137453493" width="37.05591988096489" height="47.5237730880649" as="geometry" />
        </mxCell>
        <mxCell id="2GjTwDZbmCHKGKUoSUDR-10" value="" style="shape=stencil(lVnZchw3DPyafUWRBM9nx/kPV1mOtqJILlnO8fcBs8XRsDnTG73tgSYJonHyop9+PH75/nAJ7sfb68vvD39dv749XvSXSwjX58eH1+ubfbro54t++vby+vDb68vP56+379+/dMn+6Y+XP/sKf99wquJdRwX3z+2XECTX/3759QZ4uj7vAU5KngFRfDsHhCpaZ0CSQnaw9RoAqnglAC8aJoB6cWQHX6TEGRBFEwFEyQCwJRjAS20TIHqJ8RzQJIJ8kkB0LqJ+lm8SyIGSJJ3kk0rK5/JRwkyLVMWR86uEMsnnMHhybDOp8/q5SOTy8/2UII7Im3bz/ZQsKTB983w/1Y0VDuWzxPn8NYojXlAlgXwRXwiBnLTZzWqTQgjhVcqscfPDj44BWeq8Q1NphELBSYYdkmQGMEeelW5FHAOYirMjt0od2dy2FQQUYrbo0JEN0BgvMhLDAJkYzvzKN1S6Eh2yG3eyAbIo2SGb4eBIFoGJLxT7G67ViTpCVj+4vGM341In86xDqRKJpVvA+FU2dh0DLIDNScECDLOD3XqcASlSaphd43ytZvtKXNoAmHbaWOL0SLPSGiQxHdJw+S0TZglMB8U0Yk4bGcBj+vdppOtjS1d0IEt1LDnXjcybpaUSZtQtE292G6HzWD5gZNURdY7lHQalQK1czKYB5ANJhKUsFzTc9Vg+oSd4SeR+isfzW/VD1re86jLKk4Bn4SgXPA+5n7R4cqCxJQYsB5USzko5qCwiDadGeA+VCL1PS7RuPk+lhZSFRoilI1Efii/VchsZ60QcyhYTJ2RzEiqIVyrucXUWEd2qaqKrO8j2NI2ZOKTuUXKeqYqHYaWEw2Be71wkkL7SoGAxBFdn4hYhkWLsMOag7QOqeizt+UV6yR8x0+b9OxLQw0QUZxRbOrdGk8OSre65R00ozp0Pz85dW3F1FpjcqNF2N0NXd1CoDrv9X+djpcjB6izoHZydNTvLzdSP3XulGfyD4nZv0DkObzymmFlxDpKJNqbqRtP0ns8KUdbyn8d8SRv3sFRotN6y/J3m87gRTk7rA5Rn0ab33Ys8uX6rb4oDec/WX8ZFvBHvfTrWW6wZsnoRuBzoYKNu5ny3LxvM1IR9eKRdtbVOMAkp1F5tSeJWwbDBgLVaeSnxmcbWdUDe7ybjfQ2UIVZzOVJj9p4basAgkTVCDYte3cryk6puCYjWzbEgZFs4mJDxQtO0Bse0jpTlC2vOCjTJnrqa9VrQwpbtkGfchlq5bt535pzQ6PeGkBzJokWChJ3uhiPINJzfSQcT9hMaQlezKzTJZko2m41LhNyx5WzMBDGsb0HI1NNpRIAnO/R5a0CtmQv5tmidaXVuTg9xpsUxBT8GLI11uzNxWSZljnaaBRsAC4WZUGmZJtZIaxxdGjt3pxZts81KlsxMsIywAn91QBNn7gkeSdcnXuT8AQcPqdDJQ8QImbYh/rFnSp3PHysNkBXTSIyDgmedeJwzc3Q0dfrl0UHvDNXzeIPZADqqw7NhAnDUyj1lzxSKXtbTOfEy+xseWjrP2Q5tvNtsAKU7qMc5f59IsWgXsDnoVCTEM0BQBGRWM4cxHN4DmCuHsd4eQKhhgFoWALG0EcEtR2Ih3gBoOE/dwQC6vLTSrKODajsAS84dUBAQuNKqCGCvlF3piAA2wf748/J9gH14f83+dn16uj2G7//H12/76fZyrp//BQ==);lineShape=1;strokeColor=#990000;" vertex="1" parent="1">
          <mxGeometry x="540.9620152109126" y="-30.02240589393125" width="158.36153702910474" height="232.08341920461692" as="geometry" />
        </mxCell>
        <mxCell id="2GjTwDZbmCHKGKUoSUDR-23" value="" style="shape=stencil(rVbbTsMwDP2avlpJnNjOM5f/mMRgFWNDY9z+HlclZUmZRyXe2jSn9jk+dtLh1ctm9bzugns5HvaP6/f+7rjp8LoLod9t1of+qE8d3nR4db8/rB8O+9fd3fj+vBp2Dk9P+7fhDx8jThhcGlDBfY4r3kEaV25HwLbfnQJiC0CCzAaAIVIFSASSzwNyhhwrgAgEZwICV4DsgdAARPA1B12RYHBI4EMNUFaGSowzgCYZzwNShhiaOjhwBuuYIMY2BBk5YSifJ4DqasgUAqDUgAQi5wE+ATesAwgZAASsvSGqgx0h1RyEwBlmUg6uiYDgjEKoSt9emwAOyPB3jJBr0qyl9kappYg4AcR0H2vhZhGSUTjtUfY1Bw/BkDUjCLcqXejRpoOGQWKodOLmyRsOohWCABszaU6GrjolUs1af0GG+5gBm7khwEYHkc6+piFyEe73UitpnAEM0jpLSdqULNJhPgXI5OC5qH4iazbcpz3ajg1X/Pg/gFhmxHRAsGlvbeC6zhdOoJnzLhxx2ivNyCgBz6Sfa0ETkLFdg+fmAIVkzHmvBmjSLwu/O0LKQCz7nZkPShkNP/vNc0d7ZMl+HXeZFuRDmk9awJcJvF+gp4QyqP5WLz37udbTtsPyG9VlgD78XODu++12vP+dfm8vfLo0Xhbx5gs=);lineShape=1;strokeColor=#990000;" vertex="1" parent="1">
          <mxGeometry x="569.2889784532822" y="255.7372927368922" width="6.2285646171075575" height="25.501247188049092" as="geometry" />
        </mxCell>
        <mxCell id="2GjTwDZbmCHKGKUoSUDR-24" value="" style="shape=stencil(lVfLbhsxDPwaXwlJlEjpnKb/ESBObdSNAyfp4+9L15BjUbtT5LZeD1ckZ/jQhu9edw8v200Kr2+n4/ftr/3j227DXzYp7Z9329P+zZ42fL/hu6fjafvtdHx/frz8fnk4I89PP44/z1/4fbFjpRrOVin8ubwJFOTfi68X/GH/fIPPhWIZ8JFSXccXphoHPFPWdbwkkjbghQrAa6Qy+h8DJRCANuI6GjCVtG5QhcIYQRRicEKL/XtXg0oKTmiNSh4MUoEnxGAkjVGz0YCOMJcdDdoTtxx1ozzykDFxNUwGDRIhdsKopFI698tSUhIepZGgNrJ0KV8NWv/EogFnKqNLKlTLukHKpCMPlYmBS1EpjVmqlRqonxhJRm00kytKK9VRfK2SAI8K1bEc2pWX5aR2Kd/gWwQ5pTx9HwWcKKnHI/9N9+zxAfhjMhWfH9TwrNJGSVgpNaAhwzu+CinEZ+e/iRBUQaTo8slQ05bPUaEtUcuQrwkvIJ+ZpEx4rLfk/Y+gEQnpFG9FA2EhnxXkU0nHxtgE6kE7O1e8lTSoF6Xg9FyJQf6l9/EbPaPObvN40r+CeLln42NeXofJioBE/AEVOBR9Dz0HAAgLJNUnKAN/gl9AjAAG/kyj0giOsCCTizdTAwQHn1ATaIP+fA6vFKeJEUFB2jrjOqLNpIYIjj5DahJFYzL4nU4jXKFy8pwJwyFgW2MZYyjS63q5anJvCjfbRwAGWnyfNicDWgOnOmDbqdAGpdNWJ71Xrp3AIw/WXANqLYXaGPR5OgBpSJ2Wd+3jf5kH6yXOwPo9CLrEvpFdDSIcl5mnZTlA4izrvh5I0TybGmSFSrId0A1YnCK2ha85PGovnPwAlF6va3i3QBVKaN8y/FicuZO+hhd3lYAasnjdQmTFjfLPff35uDCisuHs/Ql9A17jV6LDJ/R98Ss7Hn+fvSD/H28PH7fxp/3hcLnM3/7vb+/26nLz5/u/);lineShape=1;strokeColor=#990000;" vertex="1" parent="1">
          <mxGeometry x="541.948377550937" y="249.8413339737358" width="62.696883807366255" height="65.31027732854" as="geometry" />
        </mxCell>
        <mxCell id="2GjTwDZbmCHKGKUoSUDR-30" value="" style="shape=stencil(7VjLbttADPwaX4l9P85p+h8B4jRG0zhw3Nffd1RjXZGSJsixQG62tLNLDslZUrt48/p497LfBfd6Ph2/7n8e7s+Pu/hpF8Lh+XF/Opzxaxdvd/Hm4Xjafzkdvz/fX/6/3E0rp1/fjj+mHX5dcF5qn0DB/b48wBOX/j75fFn/dHierW/inFrvs5S8vd4X6U0DklS3DQh4HTSgSyMnhC4hahequL4NiElyVoDkxXsCKNL0CTlKawRQJWkfShpGbgGqV4DqpBV+QtGAMIje8qFop2uSzljKEpMGFKnMpCjF+NDEsxO8jUNFKEkcpkh3C6gkWQOSrywAxAckX1mcECoBhBWnA3E6uJHMM1obASD7s664msUTp31bRDqKZyXaJBoANIBkK0yKJr29BFaiTrIpIGRroLQmnXwpUVlCpJ2O9KRUxAfkUtOBg5B1ckLMllYIFTkg+yERY70b0rm6viz2h4WEIpRv1g6ANCZKSMyiOUUBJmJRC5bT5KSSMDdUj3YZJLDqacXmdrmeuQ6oi/r047pYB6AatUnNSSQaA5O6prXFkbzrgG4LGryx+6oHmxg4wRGWOjKjakASzwBVui43eOUIS73b+wq8JaYxztk+oHtuE2RMR65HKgG9DUm5AookEjm89jpy2CKSgoAB0ZjUpTCTnAXMeNjK1+TtEYnYhMjWYp3wLMHDUKEZTY4VqbdaDB4y88HbEgIPTPkm3TAlxLUY+W+UqeWhJFtFarIPWzDxhgHLImXtUl+o9wQgLHUEblHVlaVrtfkNpyNhCZnjTJHWUVNbgK4BCFwgLAHQdByQGlQ3QKtRAQSO+VAGiVdAHVts0Wq6UBgZ3wDk9wDQaJtWA7R6khoFLGk5Rn/F6qE0K32YBjoD4FrUgcuZ3tQljhbyelNjC+YDKlj7EBudNzDwmBsCHRfT+9THdHHVSm4SLI51cQJJ7xRstxE77RHx2gxZoJV1Gx9T2QXwMZX9F1MZZEbTiioPRL0BCEZmHHc6215jKinmwyJbQx1erQPSaHauJ7jRfawDwki12VDDuhnvR699BYQhPOsXiv26hPVMA+oYL2brmdhD2Rf7M52MthbgMJsTwyjeGaOsL/GLQZrfn876CwZY77YYHAKfu514Y0+i+rW42cBAZlXwzg+gb6/Hj39fWx8OT0+Xj7Xz9/brLB5dvuzG2z8=);lineShape=1;strokeColor=#000099;" vertex="1" parent="1">
          <mxGeometry x="668.2585187155669" y="251.8454626068276" width="39.82908791944965" height="43.47543807586817" as="geometry" />
        </mxCell>
        <mxCell id="2GjTwDZbmCHKGKUoSUDR-31" value="" style="shape=stencil(lVbbcttQCPwavTIcODee0/Q/MhOn1tS1M457+/uiapQYLNH6TZZZwQILDPzwtn963Q2Eb5fz6evu5/h82Q/8aSAaj/vdebzo08CPAz+8nM67L+fT9+Pz/Pv1abKcnr6dfkxf+DXjEiIgTjDC3/OrDtj+vvg8Aw7j8QogApSMPSUQCQAVpBoAFyg1AGRo1kNugCUAELClUBpU2gb0AsgG0BgwALQOKRuAJKCAQyueg7JKgYcqkG1ImrcaeCgC0i2gQ8VtQO7AjoNAy9sALVNjD5CgNYghNw+goHCJoLuQtHCBh+xbSQpw37ZHqMXaE9SAMgLb73dZ6rgRT7IZ6trsHBBOUGxAPYdaUG11F5HmLMgQ81KiK0DU2lnbLHlACjiXDtmFxEsa1lu7A3VPOuojFQ+6LDXIQdlUng4guPhcB9zMJFEOwRBrOuOcnktYh6paIC9PDDgUHWLixZOD1mAVoyV9NcvXm6ndzBiBErBOdZlZVyTCvAI5+7psi3UHN/pkKKGe3a7SOteAwL326X2qvy8GhBalVLViAaVCCcpM2jY2JBVgCijrOhabUy7hNmT0Vf7HgibxVYgvAHVQ7Yip4WrTkVSt/jNQEA/rgLFKoOUD6xMs+y2SwqUwKc3yxWVvrUsZl578sI9kpqsc2x32rfnzJY5Hp2dPd/DVU8X1aJxPnWxuhcT10pngLpG4H+4+Of8DoA8fF+7LeDjMB/L1//4i1lfzNc2PfwA=);lineShape=1;strokeColor=#000099;" vertex="1" parent="1">
          <mxGeometry x="740.0606668142836" y="248.52581616522184" width="8.72171426488259" height="37.75938486637805" as="geometry" />
        </mxCell>
        <mxCell id="2GjTwDZbmCHKGKUoSUDR-32" value="" style="shape=stencil(fZbdcgIhDIWfZm8zQAg/17Z9j85U606tdqz9e/tmZ0c0uJ47xP0I5JwEBl59bp8/1kNwn6fj4W39M76ctgM/DCGM++36OJ50NPDjwKvN4bh+PR6+9i/z74/n6ctp9H74nlb4nbmSKZeJCu5vngmZ6jzzNAO7cX8FVKEsBuBKrgKg9oAE8gkCbLeUhEoEQKSUDZDLeWYRKIl8MEDRmHwfyBrBG6Amyu4+kDxxMoB3jhwgYu7TVAsVkFcWCs4CTBEoF4RctKeOxHIf8IXYpikHikAIf+MNUW94AGSSaoAoFIE3AlOyeWU+p2E5S9yfQZcQILVuQOwZdJNoS9Ls3wA5u2XZTIHECqeJ9kDpSaauRiNVcAY1QhdBzeLBli5WazpkSsBLV25uRaqWRyFawTQzRRIQYirJzq5atkBqLfouwqUxLBepthWb10vrWZY6UOAeyKCCtDV625mm9gmUC4Wc3VLJMMIE1BsA2FW9JraVlQB7n3c9oMKhCLEvIM1zBPZ25/umNQ1tVEC2G+fFCC8g398O2hNQuQlVu752DBfA+q0ptnqO5JFmeuIuo9DY7KjY71UxdJV4EntifPWorW++R/dC4t7V3DlIB5cHx2bc7eb3yvX//QNFp+bHDT/+Aw==);lineShape=1;strokeColor=#000099;" vertex="1" parent="1">
          <mxGeometry x="719.8114598251891" y="257.67905267511696" width="6.67505681730745" height="6.664623166224634" as="geometry" />
        </mxCell>
        <mxCell id="2GjTwDZbmCHKGKUoSUDR-33" value="" style="shape=stencil(fZbdcgIhDIWfZm8zQAg/17Z9j85U606tdqz9e/tmZ0c0uJ47xP0I5JwEBl59bp8/1kNwn6fj4W39M76ctgM/DCGM++36OJ50NPDjwKvN4bh+PR6+9i/z74/n6ctp9H74nlb4nbmSKZeJCu5vngmZ6jzzNAO7cX8FVKEsBuBKrgKg9oAE8gkCbLeUhEoEQKSUDZDLeWYRKIl8MEDRmHwfyBrBG6Amyu4+kDxxMoB3jhwgYu7TVAsVkFcWCs4CTBEoF4RctKeOxHIf8IXYpikHikAIf+MNUW94AGSSaoAoFIE3AlOyeWU+p2E5S9yfQZcQILVuQOwZdJNoS9Ls3wA5u2XZTIHECqeJ9kDpSaauRiNVcAY1QhdBzeLBli5WazpkSsBLV25uRaqWRyFawTQzRRIQYirJzq5atkBqLfouwqUxLBepthWb10vrWZY6UOAeyKCCtDV625mm9gmUC4Wc3VLJMMIE1BsA2FW9JraVlQB7n3c9oMKhCLEvIM1zBPZ25/umNQ1tVEC2G+fFCC8g398O2hNQuQlVu752DBfA+q0ptnqO5JFmeuIuo9DY7KjY71UxdJV4EntifPWorW++R/dC4t7V3DlIB5cHx2bc7eb3yvX//QNFp+bHDT/+Aw==);lineShape=1;strokeColor=#000099;" vertex="1" parent="1">
          <mxGeometry x="762.097139233671" y="264.536221690184" width="6.67505681730745" height="6.664623166224634" as="geometry" />
        </mxCell>
        <mxCell id="2GjTwDZbmCHKGKUoSUDR-34" value="" style="shape=stencil(7VjLbttADPwaXYl9P85p+h8B4tRGUztwnD7+vqMKq2gpa4K0h/bQm6NwJJI7M6Q0+Jvn/d3TbnDm+XI+fd59O9xf9oP/MDh3OO5358MFvwZ/O/ibh9N59+l8ejneT38/3Y2R468vp6/jHb5POBul1hHlzI/pihFjfl34OMU/Ho6LeG8lJxVf3HZ8yOL6+CgubMcnLyZ08cgw521AtmJsB3BFUiQAJ77PKAQxlaSUxLsOkNAE0qNkJPoOkHGFFB2q+NgBiqc1hPl+DVBRVaEA0xddvVR2zllK39aaxJCUfJCsUsqUGWCS6dtaq1i7DXBJStaAQlJyTnfJGs5uW8StHhHJI2wQr9pUJJKqrWltX/S1En4jI9WlSEtIElbMyKSrUZIihhFHKoZf9NwuWTKTmzgVH5v+tg4tKPFkCYzaVmx/ZlC4IxWP9+sBCcQjT4AYY9IApoVSJfSsgAEwQA0SjK7BEFaAZUYBglRS9KtUZkBpzrwFUHoucD3SJcg99ynhpJmvjg7UUxtUYnoupRnKDKg0peL0E0DuRIrOsBivAYFxyTaqLVJiJ41hkpQekmRPACBfz9ZxNpCiEyaBApi3Rq5ViktU0gkTud8ZMpIkKeXV9BmnNhvqUUL/BCiOmQC4qUZuKtxW8wpQJRFfhY2q6YMaPAPA14vuUmF6QIlKopkOxMU0Wxx1Yi6A4dT3tWD3IezDsNGbSW771nUAElC2USn7kEBdS460aQSE9wAibEONOJjrP7gskbb+1rJUNOD/svTny5Kq+O8uS9a3diymOjNW51u+y92HEQ/DoW9pxBEwahdt3cFTeUI8yjFwjKxJ6FLo5WkzdT10yfY0som+wFV9zIhnx5xW0plt83rJ2pCgDEM80mp7sa7ti1fj8Xao6p3fSDfi9RihsjR6JqB+1v52s5kQ9LS8noLzErfRe9NLxlIPqpoKpq1X13N3ms2Gn9Q7P6e8HY8fr99uHg6Pj9Onn+X/9bceXJq+E/nbnw==);lineShape=1;strokeColor=#000099;" vertex="1" parent="1">
          <mxGeometry x="784.8278308592353" y="246.1285671591238" width="21.810288191918193" height="37.82116837385404" as="geometry" />
        </mxCell>
        <mxCell id="2GjTwDZbmCHKGKUoSUDR-35" value="" style="shape=stencil(lVbZctswDPwavWJIgudzmv5HZuLUmrp2xnHb5O8LVUPFJKSN/aZjQQLYxTHww9v+6XU3OPN2OZ9+7v6Oz5f9wN8G58bjfnceL/I08OPADy+n8+7H+fT7+Dy/vz5NyOnp1+nPdML7bJeI02TkzMf8wVCx/z98n+GH8XgFd5bYNHhLNm/jOVIqDd5RAPggv22DZ8pxGx8TGdfhi9vGp0zedv44cH5x5EOXH2MA3ld3P8+PwJ+i/LeGHLogU+oCsFQ8MCiUfJuhSJG3DaxZQqwWwkoCopArfCuimCuNW0G4Nojsqg7XDSJxS4MQk1HUnkzrktyZQdTF1qQsBgUGnQu57oZADKSdE7mWiBxrMa0bBEqtlhJX9a4beCq5JS6TQS4pAy9iusslFykA4qagW+IsUyz3pNXjAlK8Sf2A87UwpIHdpbxEFjUMJW2bKOL67IqHLQXAwUp9euniuD5Tm6PIxChJqslI3zQoS6qNCY8ZuaT6pBwBXZJG3FbPVR5ubN1fWejhIE4lwJ2ePiIXVHB6vImBBTfo+SkueVAPekBPjQ9NxH4BELUYQESgoByKoCCWebzguQp+PYCeNemSiANb5/ci1UQZUGDId7WQYFPVwzDADUkXp4eSUP6wqxm+LV7JmEUbm6oCri35Nr6kwYO5GSi24cogB2zduW5+CZeHz832ZTwc5sX4+n+/CcuneYvmx38=);lineShape=1;strokeColor=#000099;" vertex="1" parent="1">
          <mxGeometry x="826.3596393352495" y="248.7157219912708" width="37.75503135509358" height="5.711500353396072" as="geometry" />
        </mxCell>
        <mxCell id="2GjTwDZbmCHKGKUoSUDR-36" value="" style="shape=stencil(lVbLctswDPwaXTF8Azyn6X9kJk6tqWtnHKdt/j5QNXJNwtrYN4VZGFjsAuQQH962T6+bIbi30/Hwc/NnfD5th/htCGHcbzfH8aRfQ3wc4sPL4bj5cTy875/nv1+fJuT09evwe/qFv3NcJsdTUHAf84Ej5/4dfJ/hu3F/AfdCWRp8IAnr+BhJaoMv5NM6PlWqpcFrQoAvidg1eO8oyHoAF8rcJwB4yRRSg9eO+XV8zeS7gqgCArVQaetJlArASy+Y98QoQSXfdjREchEGSGwCIkPNvDt75tyjQAW4SFOUtqbCxBWyllYF8eSB7ypTaUlUDQA6qw5dm/QECpd6I2lORhm07S0HPSmIgwrbcpC0TNP1AEfclsSBMjKrzkpLOvPyEzcGpEABcTAlBaaEumRI+/NE3djWQhElMLp9wcAYIy4TeKPzBG5Ia23dsVBlMzwRM7gyn0lFQL4wK6DomkekzZLRPVuRCmaNiVBAGcye1E2b8z2LeMqJNuu9AfZqUG9VoJy9e9TtCShnbzepxCDAXp9TBsDB3s86TwIC7ANADY8Wq3lgXNjxekn9PKgMSGi9amqvAnKSp9ISEIYiuMX5Z2sLJVC/rsjuxcPLSlvB95dnIQfr6Yc5UgV8TT3TuoD4jq92LANXm376sNj8Nr0ybI+xgxoauOHO9+yXcP34/3R+GXe7+eV9+f/+qa1H8zM9Pn4C);lineShape=1;strokeColor=#000099;" vertex="1" parent="1">
          <mxGeometry x="814.047713473838" y="266.172039885766" width="49.825791966947826" height="5.084578850119865" as="geometry" />
        </mxCell>
        <mxCell id="2GjTwDZbmCHKGKUoSUDR-37" value="" style="shape=stencil(rVbLctswDPwaXTEkQRLgOU3/IzNxak9dO+M4ffx9oWrkCJS17aE3mcZK2AUWxMAPb/un192Qwtv1cv66+3F4vu4H/jSkdDjtd5fD1Z4Gfhz44eV82X25nN9Pz9Pv16cxcnz6dv4+vuHnhFOKOoJS+DUdBArhz8HnKfx4OC3Ck1AVF5+o6nZ8rsQ+vlIG8TVSYhev1GQ7Xpiyf3+0N+RtQIvUsgcUCiCjlqkGDxDSAgCVWvESZRLAoSmJT4kLRQaARuKLli0lDGjVVyFSQRwaJS+rZExa+pTUKo9SKlQ9aRNaIwDwXKYboBGjwgXi2gMKqIPKXKYboBAD0lqoNE9aZjvdB2QKvrulUAOklfs61ESCAdy1BjaQpcS+W7nC5rO6dnVIJgMCKLFXKSolVLjYq2QWjcjT3Bso2pRBgErjf0sOiQICaA/gOHfXloGKB2SbVGkbEMNt8M6IUmfXbn2iG0wSqCCA9oZQa6YGZcrRGyJhy3E/Z8Zvoilgw9oDFjr8J4SkuRcWLALwUDUZPW293WL3LzkzcTf8Iilop/UtqoEEcFjd0h8+v0+BUscgUUQM+iEgShVIZH3ju9tEbiD/SNm3ai1Q0TAvCQsvZBjfecf2DgFuW8Xb0KvAOqt8TGE0t1d8beShllvpGQNck1b1whvGqh3ifPBv3YYN9tdwe/hYP18Ox+O0vS7/79dVO5pWXX78DQ==);lineShape=1;strokeColor=#000099;" vertex="1" parent="1">
          <mxGeometry x="865.2419236266178" y="246.50737847702385" width="33.72229701987668" height="6.664033073017696" as="geometry" />
        </mxCell>
        <mxCell id="2GjTwDZbmCHKGKUoSUDR-38" value="" style="shape=stencil(lVbZchpBDPyafVVJozk0z47zH64yDlQIuDC5/j7abC1BY+gkb+tBbR3dOiZ9eNs+vW6mxG/n0/Hz5vvu+byd9MOU0u6w3Zx2Z/+a9HHSh5fjafPpdPx6eF7+fn2aLeevL8dv83/4seCYWplBiX8uD7VRz79fPi72+93hyr4QS7DPjdTu26tQzQEgSgYArVJuAcDEfN/elGoa7FECnUlqzICaAPtCmWMC7iABgJENAIMA4UuGKyI1soZdxBppJUNJFyqRhZwhC14ljboostbtHg0WPZSLVO7x3GLSpRKDHGqnGpMumUQBQCn3mHRfX25r28s6iDtRBdrziCVqTz0kUFavSY0heUMJ0EZpVCyKqZICHqpQiR48KeDA2z1Fe10fbtOWiaO9KwWwZkJpbGdF7WwkPMQjBQj1ne6MKmpnH288FlRAQL2TxXnhAwP2WqcyZKDUUUh1bcUr2SGOe6IUm9OFrcCDeYpR2N46DFqn9ZGFuTmBjGaA/A8g61ilmqHw1D0MRMs6aG8D2qg8a+sovw3IpFHac6HBGFamGolzKgVII9W1Vy4AowaYTr49NaqV8Tp0NVscSa7HBkaSJJI+xiRITOMF4MuFAXGZSkzBd4sBe1nX94W2AmvE4342XKF3y7YpPBh49f6PF9LfLyr/+HOOvez2++Wau/59PN/8aTn99PEX);lineShape=1;strokeColor=#000099;" vertex="1" parent="1">
          <mxGeometry x="885.5264662422733" y="266.52512594779" width="15.264660477929024" height="12.082647582409274" as="geometry" />
        </mxCell>
        <mxCell id="2GjTwDZbmCHKGKUoSUDR-39" value="" style="shape=stencil(rVbLbhsxDPyavRKSqAd5TtP/CBCnNurageO2yd+X7mIdU+pOU6A3Weas+JghOfHdy/bheTOl8HI+Hb9ufu4ez9uJP00p7Q7bzWl3ttPE9xPfPR1Pmy+n4/fD4/z7+eFieTl9O/64fOF1xlWSdgGl8DZf5Ew1/775PNvvd4cb+6jE0QMK1boOSEKVe0Bq6wCupNK71OI6oATSziUmBjHUQFwcwN7MZR3QIhXvUszEvA7QSOwBgUIA9plC9g9QUmBv/lZnX0iQP9L7E5kiiFiVanCAlCgL4EW4RnhNaiIBVbAnSkcM8wkwyYJIHlDSUsi1LKUuS0oZucQknkmVqaG6RYrepWryAWkSoZI8IEE1iMXgmVEqNRCDZCoekE2BIEvCPblZSEAdDJB9z0hXeq251BUuCpSPFGr+BcUxN1L/AC9p/nPZAmXt5AnlbMRsnT0Sg5aFNe/+KLJvPe9iwETVpT1cAXYDeqQB1EvBUgq1YxnvWKEkSApCzTfVrDhJQ58vjRjpPy+D5kY7FZUtURjU2f4noOVFWgugNSoghjp0GIsqgUqPw+2m035wfqrANI0T2gAB9KRxBzACo643LBkXsoAQysLlm+8rYDf3VTABVvB9a7ldhiIpsI+9/K3hBNBfTLxe/mLjHIhtGJ3GKwUVG+yrUAb5Gfwx4QQ0zCl2yqxLxT+WzxJh+xrqlRvs78YHPzRthcwgP/+61P7d3g7vG/TTbr+fF/Db//uN267mbZ3vfwE=);lineShape=1;strokeColor=#000099;" vertex="1" parent="1">
          <mxGeometry x="875.2013244036889" y="262.7610099526214" width="44.891259770487785" height="11.495948790017273" as="geometry" />
        </mxCell>
        <mxCell id="2GjTwDZbmCHKGKUoSUDR-40" value="" style="shape=stencil(7VjLbhsxDPwaXwlJ1IM8p+1/BIjTGE3jwElff19uDW1W3PUURVv00NzWa44kkjMkVzu+erq7ftzvUnh6Ph0/7L8cbp7vdvxml9Lh4W5/Ojzb047f7vjq9njavz8dPz3cnH8/Xk+W09PH4+dpha9nHFfSNKFS+HZ+EytJ/vHm3Rlwf3hYApgkjACllAAgUpUBkAIxACSl0EZApFgAoFJMHlArADCF4AECjmQuiq52QAAL68qHAI4UM+XkoxQVABKx+DwEEKUYSOsIaNSQD4GSA9T+5hKA4wjI1BDA8uoA3Je45HR1bE09lRcB0UepILZSDasT8WX7QGW0F8rQ3BEPi20WSjcvlMDqse/dzZkaiCZTcsIkBtkq1MoYGsgGoTa6Gig3yAVHT4sVCE0sxNnbIyYIVW/PYP1J4M25iwScsleLMRPo1zKfxnAyZXD+1KiMyc29Jm3a50DVpYuhGLP27M8OGB9AxkrzEWVLsVwGNKtozgUru4DPElf8tx0Ao0V9J6iWNXAkjVRGH6ZDgiqq2aehNSjhGFaat01R3VX1ld02TSAR2jrTZkClgrzmntgZIL39bMdVfN21Q1aUCPaZW8RhmxzS5b7YogCv22oLc4JB6qr2oWARJsTX2igXnwhEjmpdf+w2luoKnK5C0bUP7S3xkoTUAWxPIKFWKIxHktLL/nbmwgqQYVuw9RyZDJCAIjT0DrwAKALMfy+cZlD7jAhxTJwROKMdtI9/c+ICCZKcUnMaZdj47UhhrBtaSHChce3WZC5I1DauuSqg/c2lxLnpywAKMt20N5AFQJCmzQd3JIHF0ujd2DsdwZFMQL64ZuiDSdRN8poo/1GA1YiVHtAIWUOPydxSau9K243XgjgmzipVwJ3adbmiPTPbs4B4iZbYC8/2KGnMGaOUE2QrJ/+BZF+iaNpIcxDn8URwXfJknT6xgM+vkzyI5N+e5Nnbv07yL/biC4r2Kvl6Q/NbNzTiAf/+hsYR9T+4oale/YoTLX30e6nTDak/+AvOBofNqdKqs0ej41T33QchnLom94pfH9hbo3TinCfJbfuyGj/gJMvNz8rahbFtL756GUfQB4WNBslRKPWGcgkQV50bVRc7khdaoQJY/euX3j8H2MPLHfvt4f7+fEW//N/fydur830+v/0O);lineShape=1;strokeColor=#000099;" vertex="1" parent="1">
          <mxGeometry x="933.5932825978157" y="233.42218536093515" width="24.06481130569968" height="50.42661799525052" as="geometry" />
        </mxCell>
        <mxCell id="2GjTwDZbmCHKGKUoSUDR-41" value="" style="shape=stencil(rVjLbhsxDPwaXwk9V+I5Tf8jQJzGaBoHTvr6+87W0Nrk2mMU6M3e5axEcjgitcl3788Pb9tNCu8fh/3X7c/d48fzJn/apLR7fd4edh/4tcn3m3z3tD9svxz2318fj//fHmbL+de3/Y/5C7+OuNSklxmVwu/jkyit/33w+Wj/sns9s89ZejL2TaZE7LvUar+fZWrXASVJ6Bag0iMB5LHhAUiThEwARWI2gJw4ADu2PuQmkfkQpdqgwqsYSJSKdLUAlULCmqoUu6VapOh1QARgsgD4QABJdL0A8TlICNaDSSZCpCIp2piqVJKEGKXYBRC0SngBD7KNaUZaJpKEKNGlOY08XgY0KTbNGVFmRML31DvdSRIQw2KjVOqop8sAlWTLs0aaZrzOthjAi4msUJN0C5ggCQyA+nSKESSRsIJo0TrdUNBshSK5GUAP0gg1AOiWS72NNS8CpirRZloDzTR27JwGgIVVV5IxA4hkKAqoegDLgy71uACwJqlo7aNcFkCi0q06or4ACk1cDCvV0Mr3pF4FtNEl8Fqd110yA1QvxVgzk1Rrllw8gBX1KbFnACVOg5xOiwFgStbrKtWdFkQv4wA8Cys7TnqW6LjBa/QCoFC9n7fkwpolsC3VFfuidHIC9TU1Iu0D5sS5KC1PrlKjeUAjxzrIp8lvKREfkNfgnE6SbhRQ8mFlFXe5RgNh3ywDDjDdFBqX6oXxV6VsVRBUBYo/FudNMh/i6C2WLvQUh/+EwCHVV8KhhB04N90SALAeq9bh5JkO0F56TacmlWwJnW5zDMdhzJosxN063XkvDYDaokPclPXSy7hw1j4U4jQAyfrQoAPEafR9ao+IuT8g9MuTn2mqjtbx2pRV7ZbQRXWiNBlC5BrFTksoZd+KFt4oxubJh1aUSdPcsFsf0JwyecWc56oa7W8lK8xznps5MLUw8gUvNMgMnV6hvq5hh7wy8sVB5rNhVElYsaVgncYAzug9f88N1BPlEuagbkUgRlpxcYn6Qj7a62K0VLtAoaci7N35kIeIXLN3BZ1ohLD/HJx9YERt/j4gjo7usn2XZP3FoX6D18nZJzZ5Iz3ePvAET+rtGYPKGL9O9owPSP/k/WVjMRjqOuhI4/+vV1C37fHjdN/1tHt5OV6Xnb/392N4dLxby/d/AA==);lineShape=1;strokeColor=#000099;" vertex="1" parent="1">
          <mxGeometry x="744.7382724093295" y="321.7508124240935" width="45.55765463882316" height="82.25451927147138" as="geometry" />
        </mxCell>
        <mxCell id="2GjTwDZbmCHKGKUoSUDR-42" value="" style="shape=stencil(7VhJchsxDHyNriiSALezk/zDVZZjVRzLJTvb74OJwpGAmWlXjknlpgU9xNJoYLjjm5eH2+f9LoWX19Px0/7b4e71Ycfvdikdnh72p8Orftrx+x3f3B9P+4+n45enu/P359vJcvr0+fh1esL3My5R7xMohR+/fxBq8dcvH872j4enK/tOja19oFK37fXvLAYQM/WyDeBM3CxAqPA2ICdid0IbTq4CSiSxgJRp+roJ6CPEAWCmlrcBtVIuBiAynFwFNKFsy5ALMTihB4oWUCoJAgiJBaiTCbjU9Xk26KZZApXufeRkADpTBJWOIVAIFiGDLVtHFBtEVzIFAGjULV01LOST/l1t5fQRMOpCyQE6RRSDhhg8oAK69kTFAq4St0UOx1c9oiP6acMsfMogTU2zyD5NDaRJuVMXhehAZ7QjfKkLVUBwBQSrG8oNAUHXPpr+muCoq1WZom0hhtyo0Zc6K4FBWkvzPScV1qEUEusSV6iuRUN0eq8ugaCLeCmLdUS1HjT7OkTqQFw1q9EeEKiistXh78U+An9a8FXT5kE8Sl7GtJsQUbMXsUgVxNuKH4g8FGSr1Zz/eiC2T7bTCnUUb/HPb9h/bUw3budZtJVQcQmKlBCDdJAkD0AcVUrE6gECXKri1Si+Qbq0GAskDXa+WPsKV5IaqNsI8vhh6/lu5xHYBOp/tilNQzi2EuR0JY6uXrdXbbayErCUavrY2aOJphwK3p5RE8hiJyRGzy8Uo8tPRU2vjMsu/2jWTE1s+aBdB/ig/lTflGhtuaxmF37CYblmj2dldy1Zx2a1OVzdjt0wo+fJOMtigS8WbRaRuQQZvrlMwuWEVFdcpHR9PG9u4gBlRVc7t0apkx20zT+8MiPA/5X5L12Zp93InqBRVTT79e3fvUQGKHw6SNyg0lGH2FcXhSsB7ptF91N7Qg7jxmH9fkG8DAgeJsJ+o2V1ErjEi+mv6wJaL6bp5wAdUiOyX/unGwzg0rRx2SyxQHrP82a2z7Dhql8Y1D6CCLJXSvWngRQptcXbI+Il/+alCUJaH/2WzfOau2qvFXPxRqh5C52fMgzUIvhW1nnL0N5t8VqRgAjh+ZDwtP3Te8W37fXD5RLz/vD4eL4Dvf7fX3rqT+cLU37/Ew==);lineShape=1;strokeColor=#000099;" vertex="1" parent="1">
          <mxGeometry x="791.7835746974597" y="397.1445891437395" width="37.75867218734513" height="53.115280336369004" as="geometry" />
        </mxCell>
        <mxCell id="2GjTwDZbmCHKGKUoSUDR-43" value="" style="shape=stencil(7VnLUhsxEPwaX6ckjZ5nkvwHVZjgCsEUkNffpzcubayRtwOnXLjZa7U1mkdPa3anV89314/7XXDPL0/HL/sfh5uXu51+2IVweLjbPx1e8GmnH3d6dXt82n9+On57uDl9f7xeVi6fvh6/L//w84TzRbIuqOB+nZ6EIi3+efLpBLg/PJwBQhLvR0AT77YBfv2/DtAgLRNAkjoCYpBATALAhxHQJCQKcCMgFXF8h1QHQI6S2A4wIA+AkiUE4tbYLe6AGiXXbYBGKcUCCnFrxM+jW2voobwMaNKqPYMnXkra47p6KXU3XAYgcOOhU6VeAsAcOjnJzCQEbkxv5FIkbk3RRlq173kZEKSOJoVMAxertNEkn7uRW4GLBuBFGUB7bnZAk0q8ivXOpJJ4lklYPxqUu4Vb680BkIqkeOJUCyqBJWqaHCSNMFLM0sbyd1IbjVi26xkfISeNPU4csQcpZMjCiWcphzprZj3z51IEwfinMHtyJ5I1pSlhZz/nWyL5VlwPz2pPk0ICXJroeGA0KUc8VEG24w7qaQm0IMk0qSKR+KiVXuRrTkfaN71bk2DlLuU2NcmjW7OKkji0ZONWlAYCHUPHQ+BJJTtUbysHnnYEgMj5agGRAfBznHZgyRStW5c+SPi3BCtg6krhm+lq6BEFTvgCgDymaymUYAr4fHRrSaKkonEG0wcRaU8oGF4yJYc9aRxKP+IKcDyX3KR4HK0geN30QZjk2Q6pd4EVECSzHbJtzXBDJnGoRYoxqVAmXgDGpEaTbzHJZCvXtji0n9JbuVvLGDj8BesOCJzdATXIKq509XEGYDKvzFIVoWQVh7gaAIiM7eBt8tW1pF5bopXKPOzgTKRzp7atM5gWVDjdw0t+qgfWUd4MWGhrdGvOlMjgdUMC0OeF7RAu3MQKO/RE94tYZFqjiRtNQqOuhPlSs5GGOqFqtXVxtKqTSmv6XZ+/6/NJn1ez/r/qc9dl40oUXe1eXo+EHrkON9RCEgg0ko1BygHV1pgG2vvB10ZHRi7oAahmtOA7+20BTFLAbYGUPZjIm2kHrimkDOClauYpuMWQvIDcN5MzEHJm85RpxNO077lV+UYstNr73OUxVevjljU1HC8e5LK5WeFew+QFyDONbIfLGR072cChz7FWDrVvOrnyWZ69YOREBzxTqqZCB6TTvRB8xoaRbqod7tAwrXc0xn6trLMGyKQ/bu/mGgm+yKT8l/mA6cmOXiM1d0I/GwCwlqbRSh2t9JIXphsVCOYfM2RzZ0MY2A5e7Vh7iRubGARJzp6BJR4CFw2g9BHCxkyi359WQKZ3NgCM5NREqx8AZw6ttPcAoGN1Kp9SA9CMGOHlDy+16QVGZumt9tDQX0zU+mj13SLYGCCLGwsI6V1Z4N761uYVAHz4+5Lo9nB/f3rHdP67famER6cXUvrxNw==);lineShape=1;strokeColor=#000099;" vertex="1" parent="1">
          <mxGeometry x="836.0235123839616" y="396.39213987676635" width="48.408961062139696" height="51.51536371774585" as="geometry" />
        </mxCell>
        <mxCell id="2GjTwDZbmCHKGKUoSUDR-44" value="" style="shape=stencil(7VnLUhwxDPyavaps+akzIf9BFUvYCmGpBfL4+2iysVnLM53ikhO3DXGPLbnVas3swtXz/c3Tfsfu+eV0/Lr/cbh9ud+FTzvmw+P9/nR40V+7cL0LV3fH0/7L6fj6eHv+99PNsnL59e34fXnCzzOOK7m4oNj9Ov8levL+z18+nwEPh8dLQKSYR0AmRgAmHgEpUogQ4HgA5ECcIMCPgMKUGQJqGQDVUUExZPJ1BGjQZRsQIrkxaHFUHdhBqIwxVE8pAEChEsagM85SpDTGUBylDACak5EaOVEEMfho7yEJxQoAgYKMgAqpsQDGoFMhD2JQgBjyZXIohkRsdogkIK2+kCsW4FAMQsEANCpM778n7gAmwSVaJ0BBO5RWLheAiujtiMXGAOtBCzJZgIAS1QJKU1qLAEAiMReXqIICilqQIzWyIwE76IkNvXNtaVgFaLmEcYeSyIF7KJoTU6JCDsSgOsfjTS+PAPegB4jjDnpIuENu9XVR0xnFMEml5q0AEdAjBT8AYiEBJaohRgNQegMRyJlkFLKgRwJZUhXKI5cW8QRBKzejATiYVg3RiLH3VAGXYu8G/aahjim7zYkSJbw+mRzB+tTz1LGgmSLIUIzNJPSAidHzi20NjgJgUfKtst7Wo/zojVVv1ntwYUoJLmY95Jy3bcG3DdfXc0v3W/49iFctkZHs2PzA1no/KkXG2uUpGk9FBeWztg7T/QuMV8XZdEGB/NT7NSUp0LEtGmLXR7Q+Us7m/Bl0cZUcn0x+IuCD1pd5vvoQdB5n86MSg87jbUdmXL/qOcb7VYFB+pNn/md0fpnryyHJDbbfYwFdfJ9dj/ijvd34uk7wrXo0/GfI/3evF5vPCt1KmerFZ9yHpT2vH0gjBjdcg21JC0UB5Wq1M07oE8MqQLgNKB2QYNMTdSumCDxULSnNalx4CSTrItZ8LEREA4VzkxsXaBt1izJZrgq2kElKi29itpUm429KaWq5DvDWmFZumd7ihpnhdf5F8qsnNu1b2YLyqv3Y9LOaKCPDki2ZdIYXwD6dKIwxLbFp+NbQb8YoHZgd0Ayd7IyGLQMzmh1XB2bApY+BudXox8D8/wdmbgXZ6c2wh6r28pglHZjRu0U1ecmYzj5YbarGeKTlRR4C9IZzIWToNVuauCQZVpwaK9N3tQFUxKXQlLR3dodnFx0VjZfXDsBgWAiNCD1ogebTTd7EQ7JOLbEwNJNTMeT+amU9YPJjf0vdq6yn1KpkrHBYi7Z/6iUiI1NtRw+1ufv1ftt27+sLfL5eMJthPEMHoKrtJ0DAqh1mK4Ze1U6vmxWQwR0v83S2AKipbF9NBew/eVI8BcAX2tnyTu8B8VplPpkYakv0OqC2rHeAtFrdAtivKQ5/fnn395p/A/TH2+ehu8PDw/nr0uX/289J+qfzp6hw/Rs=);lineShape=1;strokeColor=#000099;" vertex="1" parent="1">
          <mxGeometry x="895.433359459028" y="369.38277478157283" width="31.016893598552674" height="74.25221454985962" as="geometry" />
        </mxCell>
        <mxCell id="2GjTwDZbmCHKGKUoSUDR-45" value="" style="shape=stencil(7VnLUhsxEPwaX6ek0ftMyH9QhQmuEEwZ8vr79MbRejVrt4tDbtyM0Viame6e1u4m3Lw+3r1sN+pe3w77r9ufu/u3x034tFHdPT9uD7s3fNqE2024edgftl8O++/P98e/X+6mldOnb/sf0y/8OsYVyXUKUvf7+EWQpH+/+Hxc/rR7Xiz3QVwa1nsvLZKAJnkMUC/FXQ6YTlTGE6nUdjkgJCl5CIhRHAmIQXTcIUWJngQ0aWNARpVIDilJGqtaXP+JswEZ/x5zKFkaOVJONqB6yaRxOEDyY0CSQKpUii1rw0+QHCqgEe0O/8ByKcB0ujTxmQeYsgJLpEpVpY3gy8ASO5KTOuaQ5j0vVcm3EXwIIDkUHCCM8I4SWKerhDFpTTSHDPTrSNEqkRwJ4ItjH04sPw9vUNSNnZZKijTRa0wBwCAHSjN/56KKsvXB8jNIJFzA7/uxy9r5eml9MgWSyumvRiTFkxanLH7EBJjG8gXoilnvCZVT7Qg7rXfs/M0CwnVIXQJQama9kpmQIVX2PJkhWjt+T/VUdp4g3pn1ja3PlpNFAjn/JOaGYUEqE99spyZOxMQXYh7HHUAxz8Q3i65lhdQUYh7GIwVO4jaPi5mUicpKa7aq4BFLGgFt3AFEYlYBAWnEBZjUWA7VCheo4dkORXQV0AKtkhmzIBNNOvQUFwGRgK95K3YIYGqKTsdmcwgk6dos+CA4jM91Rs6icawPCDAEAjTY1MSRksESl/jmrO1MyvugVlOTp5MfjbM5eM44gDnYgMgCimUcAhrrdJWySroytK7M+WmUnnfzbp4ci1az2YwtiqlrpjYSSTQDptLTulSmYigHmrNWZ2svwCBlAbHzZclRloP2S9RyB9YI1y9RixwSGxAo64qjzP8jwDYu00vP+wOS1fuIHJjZVnsPi0p9T6kdavPMKt1JnA+AFzdT0XchOe8ESp/j89yNFK2wMtVYPYwg5q2K5YN3VPo+zPOHeb5qntn6/22ek/VUWQJbX/rTnAUBmMsrK20Exag9T9a0AdLM2tbVUAtKPViN9ukLlMsRXZkslRFT5f5lNUHQR0YDzKho7jCe2/MkftyhNO624+rWf2WSq21cu/L0JXXknKDByYZWG/Ga7APZAmDKI/pQBzbVQIdqsuZmYeL/uMOEFhYQ7SifGkHQF1sfq3NAoJSLK8kGaZkGh/n+u5j9heBbm73FxEwZpLP1nSmXaFlxw/bmCs2f8mb7YM7DxRG0ug6Dk4wxvrmVh+z8u7Tc1IfW09lkI50hzopFoKl6q/BK0bCyOErlVy2cuTSunul6qtXR3lg8t1t2uOoV0ETrbRiKywqT9OHAO9+1XF2OD6fXOg+7p6fjW6Hl/+1rIHx1fIUUbv8A);lineShape=1;strokeColor=#000099;" vertex="1" parent="1">
          <mxGeometry x="908.0222042363635" y="367.87149147720083" width="55.95852254265408" height="76.84745151371935" as="geometry" />
        </mxCell>
        <mxCell id="2GjTwDZbmCHKGKUoSUDR-46" value="" style="shape=stencil(lVbLcgIhEPyavU4Bw2M4m+Q/UhWNWzFqGfP6+0C22AjEVm+I3cvM9EzDwIu39eN+ORj1djzsXpaf49NxPfDdYMy4XS8P4zGtBr4feLHaHZbPh9379mn6vX/MyLx63X3kL3xNPM0UdWYZ9T3tMGnzu/Ew4Tfj9gTPocercB7vfIvXFOQ8XhwpqfCKlAL4SOIqvCEP4o+2pDfHo8iAA2Ig2xygKVpAiGTrDNiT5/MEreYUC8MZChocIRR9RfBCDhE82VARxBAD2aIpKhVC2hGQtQiZWBOEBGQtTLbOIRUOJR3S9+oqRUcMWinYliCeGEgdNEmddEhBopAUMdfCSWnfKwk2NdNNIRlPDgjXJ50m3Edc1npALRygrFvdSqoof2VjaNIXOq/GB9L+ltbWgTyaz254WJMDGvwznzYQo3HrLMAzMShSNhlbJy3QVnsby0YIQup9Mp2JQspG3NRVXbDizrovMfrLIYljbrp9kvwReWt3vSWCgAlNt4Fr6uSgtSblGlfSED9P1yxcKhvQwRSPmzsD3yaqHWfv4Tz3d48j727AW0sM8U08zPDm6fI1GN/VU9si+XV6CVlQ/twPtVvYMttXNhx+T13Gp8Xf4201bjbT2+/0//axl7amhyLf/wA=);lineShape=1;strokeColor=#000099;" vertex="1" parent="1">
          <mxGeometry x="928.001410055308" y="387.9316445068075" width="20.53436466843128" height="6.136815618081398" as="geometry" />
        </mxCell>
        <mxCell id="2GjTwDZbmCHKGKUoSUDR-47" value="" style="shape=stencil(rVfbbtswDP0avxISKYnSc9f9R4GmS7AsKdJsa/9+9Dy5JWuxKLA3X3gs8vDw4olunvZ3j7sJw9P1cv6++324v+4n+jIhHk773eVwlauJbie6eThfdt8u55+n++X+8W62nK9+nH/NX3hecAmQZxCGl+UBNijx75Ovi/3xcHpjHzOUqgCRoDkAZMhZARJwHtsT9891+wA5je0TAydjH8LYPhcbAEJqY/uSoGmGxEHHH8b+eiWoAPEYUDPET6WgvfOIGnBxAAxBU5oSBA9QoegYcuyf2AaIx9ql3KA6QcewZqkjigTxwREawA2yB6j9dQfUCkgOoEDVSn1lepQI1lISJwM6AIRMFtCcYmgBCDWAO9PbYqqQNEtyZnJcqgVa0SylXlAjQNQscYbkA4I+oWTIToUKgHUMObssSdBGS3NTcGq6ijg1rSlCdQAtQtOZptrFMpIGJgto3glrk1hdQiBf3iYPSXLvudSsNKQVsifvZvtMESe9GIRWXXFcun5HMTQdgzRDt6YZktZSI7fbt1VqK6D6AAI08y34A0W0EZI94l9f+D+AGqEYmtiVq7TSovsMi76dhi8FZvu3zAznhLnAtEuZIDtimuWPFhC9vUFiMADpPA5LUfRt5Jr6ZN2mFVAfIDyzo9ZiF41KPZHbpNoWUNGtN+o9a7UPnbNthvresiaZ/dXN1j+TO62CHbiF3VESIGo+S4To8PNuA8jJ3fSC5VManreUBKi6CKTJe3xGm18qvYwG/JtFldAdhJ9dtT+2l4vXvf7hcDwuvwVv39v/AHm0/EPQ7R8=);lineShape=1;strokeColor=#000099;" vertex="1" parent="1">
          <mxGeometry x="986.1592984272202" y="384.9477460167202" width="47.81197609995356" height="10.873138932105512" as="geometry" />
        </mxCell>
        <mxCell id="2GjTwDZbmCHKGKUoSUDR-48" value="" style="shape=stencil(lVbLbttADPwaXYldcp/nNP2PAHFqo64dOG6b/H2pKlJFOpoiN1nieEnODLmD3L3sH553A4eX6+X8fff78HjdD/JlYD6c9rvL4apPg9wPcvd0vuy+Xc4/T4/T7+eHMXJ8+nH+Nf7D64SLgXocURzepjeBEv998XWKPx5Oq3hOFLqJr9TDdrzk+fMcH4VK2wakSsUeEBv1sg3IjbgZAAu1vg2oNyVwJ67bgB6oiQFIpQaK7nqCBSTtagaAQtXWkAoF0KXeqNoacqKIUurUqgEU5QEV3ecmLkTLnORWSi0bQBMSwIMW3YoB9EgJnaAl2rb2SoyKVnHblLQqpKWm4ksekECXWqLsasiwS429NBoWXwsk1kD65j3Jj+XdKVuma6AKTlCAGwFFARGkFImd+CJlwIMKIVseklIJpkwrlGxbpZMIAHSqNxZFXepCIfgTGKSkvHbnaZn7tuWH9/9bdYkRoFNhz4MA4mIIvoiKp7ceIZbqUV4op+pz0k4HBMjzGFoZoiCPqiFuLYfE1DzVqz5sItKnEEXlafWnimQwwFXPbkXUjPcizxtkIVttCAaH7uXq1CFwp1TvuVwgc3lWzhKv+gbqU09bKWXVHnBcpG5JSCoMkE/wG04NisZY8MtBhBjM+hvv8DJ0NuKTrTdqPiA+kth+xmUKfkwwVTfnKYLtmfyETFjR84BesoHTrvlLGPbLZ2+R/4/Xh39X1qfD8TjdeNff/RVXX03XY7n/Aw==);lineShape=1;strokeColor=#000099;" vertex="1" parent="1">
          <mxGeometry x="1008.8932322337632" y="399.3210950900334" width="33.66106681028701" height="11.01273679071645" as="geometry" />
        </mxCell>
        <mxCell id="2GjTwDZbmCHKGKUoSUDR-49" value="" style="shape=stencil(7VnLUhsxEPwaX6dGo/eZkP+gChNccTBlyOvvMxtH69XI21QuIQffjFFbmld3a3fjb14e7563G+GX1+Ph8/b77v71ceM/bER2T4/b4+5VP2387cbfPByO20/Hw9en+9Pfz3fTyunTl8O36Rd+nHAuEqcJJfzz9I1QlN9ffDyt3++eFuslUXbdeheoAIDPVEO/QSCO64BQKUgH8EKhrANipdyH4AtFsEOqVPsdgqdS1wFZj1R7QIFHqkKZO0DUoB0ADGVQQESAZGOIkRKoQy02rTETg6CrBp17QKECjuSYifuoE7duWdui9nlNQinhM/XNlAIstUbtSw9IJBnmtRhApozyGlthZ0CBA6G9UUzQFZeaKQULyGEdUDTocQcGAM1JGWIAgCzEvu8NLSVIa0y2cNETgxiCtAMsRk5ApT1T7WMIjjI4khTivr+V24IHOyTLM0p9AiodcqPS+Ug4ScpzfcwCW08pohguxkSZWxe09QwzpNPrnVmfQIKStxl1xOA8KbafO8cL12cqfRN5imi9dr0h1cbjl7uarbblRuOX1zuSPp+OYQAK4L4hnMDB1BO5vqldgBysc2vlWQkN1XjU8wKTqoMuRm0d7AoddENfgRs/rY1N7oOO2nfIMUhjhpm+XNOuNU8S+hi0Mojv/NxoDVAcFE8ZdKeGpvCrvsoAEqyDconvh0e1LgJG1WE0JK9qitTZqXOLFlBB0NqbqVqAB0dymnWzQ8ba2fhwXq8UAkIoloBVfCvo1bFqDL1qtQRZMgnKkGuCMQMCPJDzVM0OHmqOm03dDJDWKJfbgpvoLQFIN8dZ8OTBkbS1bdDxreExZljTiohbASZLWjfk8hRgO9WTQ8OTrXvWzkOMoVJjgtbWrogApI3KYngCqnS1WVoY8MuISHkYaESsqk554JgArwADKSUIKNblaR0KOJEOqFnv4L2qWK+t3tgBVi3W/b+xXinPXJJyhDbVzQmctSpSRL0trW0WN8OMBnrwtXq7RTnyg0CrokMjPHSeaktFAh3ImVb1cHquTvjqhP9/J1zsU6FpVhGA26QvrTMIOg0ios4VWWdVYqP+IcIr53s9d0LPzqo15//ouRPyedfnTn8A7/vcSd2yEwtgkNaJyEwM8zVojemreXKb4IOqOFiegG9Jk3qaGRX49Fm517S3KjbiGTeP8ExMvnXX5R3aQC7IGLlhbneWBdsnUAUevDD0qcM466UKiC3bJorw8u9aOc/SicZG2t5nZUa3I28NrbYbmLFoR4yb8bnczo2lzstRIofrMjfVXbudZutyYCbVdJg+gBfBv33X9PZ6/XB+sfWw2+9P78WW/7cvwvSr00s0f/sL);lineShape=1;strokeColor=#000099;" vertex="1" parent="1">
          <mxGeometry x="973.6495813270158" y="350.38039417951836" width="34.10534738247179" height="39.639407011115644" as="geometry" />
        </mxCell>
        <mxCell id="2GjTwDZbmCHKGKUoSUDR-50" value="" style="shape=stencil(7VnLbhw3EPyavTb4bJJnxfkPA5aiRRTJkOXY/nvXZMHVdnOnBB0D6LYP1pD9qOpuziHffLv//PX2kMK3l+env29/HL+83B/yH4eUjo/3t8/HF3w65E+HfHP39Hz71/PT98cvp+9fP28rt0//PP27PeHnCVcljA2Uwq/TD7GIxv9++fO0/uH4eLE+RqnRAqpo2QekKDlbQKc7pC69GkBSKWMfkJPEbgC5S6kUMNQAapAUKKBaGzRJJ0bnKLEZQCtSGCCIWhua8h1w4mIBcCsxOg0fuI5HKI2DM7oj9o0AmmTr1p7mntcBKsF6qWcJiQCKtLwA2JGylOSPpMzoJCl5ozuzAZEe3q3US0FKsIEb1Og4ZDhAm7HfAzQHqJI5oFu3Nvgtc6PtDhqlMC+tjOME2nTJHqkU6Z0mX7SBy206eo8PagmER7A4gHFeyHRatScCze6A9GWyhMxwdJgqsqsZVih15uKuKFV3nkyijPXDCbEoez64aLMC0k9ClouXMDiA+bNKHW59YKqN8CzrSZKiamR/HiZfeUyiv9rLyk5BvILzZyP+KXCfPX+hrMT6bs+jksn5S/Ic65JIfAsKvX0+DMgMgPy1rH+tvFcBKMPDVsGSp5ZdBxTPyZon6a4Dui/MqOTMqRA2J6Y6aBZplWRZg9KvRFda9LRBjWK8R2cQ7A69SiM74HlXegXi1hGmUJ2NrlRMx7KD5km+6wD83TyA1ahRlyNlys7RfJ3VQtvI0b1cq87G8jpgqSDaKR9iCD7ULczivrdFc21hpn3kOCfnRe1nRQduapaj6C4qs1p9t41kojuU2RpcNDyRUA7J5Oralq7sSNEPMbCBKXEfs5e48FIlwgSAK52IQ2KU617JWqA2YAcn9kgmmn1LO4J0ZcIELzUbBxCC1WdwNFsbQDlWoMFRp/cbqRlAl4pVJLAjLSUawlRZ8o1FBRqdPgEYTivDlNtdgG08W3prh+wAlTaeMDo5ADpVJgIA5HcBkpc+VBRWgrpOFZoAsJzJNxgc3bVB4N2bLoF4Df51QJlF8AxItMqhF3D5jWmSNUzoNtwIvQ3pJDfqMtXDKlaDivoppp5ns90ezh6pjEnCvSa3WJ3ZfuFdd7BHwpz0xnVMtyqA+ZKR+mPu+Zh7/NzjpoD3zz3EP++ee6KoG/zRvbLBKs7nnQ2O/KZg6Ue2HGS3f82nHIwa7G6hev2FNlFSLsW/NtrxbCe2OgFBZr3tx5XnrDkfV57/jytPJzIqjRmd/FBSK5W9LQ42l9AN0NSIvg5upZy5tftszWdp2xlYpTrl5pPYuXu/6BWUlXIvYxuhWOotvYjSYTX6WTXxcSHMf8/ry7zN2Vkf3R1yokmxzP84IXvxFHw7iLxlAVvihZBHRoPl+Urbzeh78lg5CWadvFhP79j91Bz53dl7316+vR4fXl+V3h0fHk5vWi//969W8dPptWz+9Bs=);lineShape=1;strokeColor=#000099;" vertex="1" parent="1">
          <mxGeometry x="1063.6918564929838" y="363.6758681579413" width="69.07853245527609" height="48.16740427040031" as="geometry" />
        </mxCell>
        <mxCell id="2GjTwDZbmCHKGKUoSUDR-51" value="" style="shape=stencil(7VnLchw3DPyavaJIgi+c/fgPV1mOtqJILlnO4+/Tmy3OLsGZduXmg2/SLHoIgg2gwTnpu2+Pn74+nFL49vb68vvDX+fPb48nfX9K6fz8+PB6fsNfJ/1w0ndfXl4ffnt9+f78+fr/108Xy8tff7z8eXnD31dcjJLiBZXCP9cnQVr678HHq/3T+fnevklsk72K2bF9ShLrZN+kBGJfpdpkDw97OQZokD5vIFZpjQCytDAB4GNiK3SJs0upS4nHgBxF0xyjLLkTQJaoM8DopnMVzRMAryiVALqEOUq5ieVjQCkS5j3kJI2sUINkR4wuiZx0LSPqG0ClkoOrJmV2KdlYcxfQkuc22KVKAAjivAdQo5IotbJQI41A7wOqBLdClEzypyHfsgdEEtbWReewIqM7ObhmUtMCICt0/Nw9wMimO2JSlz2QfOgqwTygshV0OHB3DpFsumfPVgDoplE13DkoLQJ9LTNZEiEfAFo9wEgp7m14vCVQHEm7C7At6hsA+UD2YHBgrksoAkrqklVPvlxo1bA2grgBTBLJB+u+thZ+cIaqMR9cMbqHGIKEOa4oVUqqAJborsehqxJ+YxN9jisqTyfcQFyzA3Ta5Az0n8OEJGRVoFcfJjxhKYey0eYM6jbYsg+IfgU4yaRG1dHSNgByiqxQsi9MNz4ettE5SuBj5VIgzeeAo2R9F+rENTmQJZGDQ1VxOQpAZZseDWqTPzf+7rs0lMXdAp2wG000e3slW0Yv6D5EbAPBN2mcQSP+L9mJQ64k2YKo86dQ+zhK4h3rWIFJXrDapub2Sbf4o9II56qXGLCvTDGIFW9vrARLXrKsEP9j8CLJeHmEgHcjgPG2cwG4FRrVbReXXIzQJlhTGDPIHacja7UL54xytO5kvbEBwJd347U0eTFy6XLkjKNvy4iP0RzLwdszZbHmZPuBved0pbI5LJwuQ0cfxMe/P1MCIQOXHGM1sSx846ML7JecZ/bYgNOCFwAjRPciHoBMIgrlF11IN1LtU1SXOhGp6i9x2UOgiqL0cZNwpygCGzmX3td5nWjLINLBIwbY3ncno9gKfZtTNqFmHFB9WJuOozxS/e6kax8d9BDg5Cw/abhks0ulDmG1DyhDx22AQIdajGvOpZyHEjsaOdNyuVAIAHO2uxXSRCU5Jnk/cqKIsxV+3RUMwK+7gp//riD42oqOwXK6rZcLaXSMfYB6TaV8+ELZqnNY86b7juZBp5wxvzGVUZqX5qhLbGrG+1yZwUjJ9qDmh5cMIcnaLnSUu7hF8eR92q8Q6TmoLvewhWoZjKiuauBJYANh3SEfu+m9qJnZpWi07cY+6twG4BfocbsYuE3BVGDhZ6f42ijnBwLdpU+mzSH763k+4ukQ4zdz1tF1MGaLP1UM6i9qEs2a7Ospmg67Q/EaLPDvCqLmzFkfr+My8GbOItP87M6Z3D2R+c2JDUV9M2e5Do452gd+8fh/P8X90B5/3L77fTk/PV0/G97/7r8T4tH1G6N++Bc=);lineShape=1;strokeColor=#000099;" vertex="1" parent="1">
          <mxGeometry x="940.9675604923746" y="460.4278300162832" width="58.61510186341873" height="104.14522124167759" as="geometry" />
        </mxCell>
        <mxCell id="2GjTwDZbmCHKGKUoSUDR-52" value="" style="shape=stencil(7VnLbhsxDPwaXwlJ1POctv8RIE5jNI0DJ339fWdraL3irifIqZfc3I1GEsnhkFR3evPycPu83wX38no6ftv/Oty9Puz00y6Ew9PD/nR4xa+dft7pzf3xtP96Ov54ujv/+/l2Wjn9+n78Oe3w+4yrktwECu7P+YMXbf8+fDkvfzw8LZaHIDGM65NouQ7QIrUOAPWS/HVAUsl5AMQqlQBykdQGQI5S3HVAqeLTAChFcrwOqEmaHwC1iKvXAc1LHK/UgjTiJeyXzZWaFCUAmDjGIdfu6G2AE9UBkLIkcqWCuI7MiDgzkTg06yVN4olbpzCN1AhZKjE6O0mj0eENLkXJYxzAVkeMBsBQw+MLuRLYaoz2Kp7Tu41G+0C5hCvpmA/eiyMpmmCiuZKTQPIBgDa6tUnMZH2xB9S+wfb6KiGa9Zm5qNkwQ6QYj5yUZtYXcp/sey5e7GUxzsGGDLlJSJTV8hoBSCzE834zoFAFQ+q6MTdDksx4HaSOAFUJjNdO/OhTbVQuINJhNDomekLMnZSzICFzCO0mwEi7KfCER9CrNF4JGsmKWwydB7MKYwt2pZWoVggSMxqZaKhdJZJIw+uG281JJCdotdUQpSeQ7NFsK0nTXoy2AbHfeAbE3kRsA7zUbAEscMgvLRYQSBxCsWyFDZ61MakrygzwkolmhNglaw5coykKQBzJd6nx167kDYDnNIplNlxS2mRMsjvGoQbaZOhcaBYAVnogKjlagGfUgJCtr0QiDXo746UojgRuki1v3cqMRoraOBQuM06cEYHGbWi9B1mSj/fQNuO4eqPxMlI5JRCpQBq6icsUZW6Fl1YpGskJSFErAkq7ANDbGV0KPKdjbx4XUqlMNWJX0oUYK3Hr+wFJ4pgPmDQYW+El0wkUJ5XHwcxvOdF2EpHWMafRniUm99q5OQMcnTSmgjJ6CXWVUQP54MdIY4tIrhTRwI1cghtYfUArYhIIc+wbc8DH4PAxOGwMDkbD/u/ggH7WPBtMgwOxoATJJhGU6gv0Ko7ZPwkIe8lQ24pN2U9IAQk1QUi8kqBuGNZl8IqEua1KT6n0BO+cna8ut9w+YjX9LPa49oBjhpOWpRIrSlsBXI/NNsDbWoLhxLEHHL8asCqNdSy2CcCcyZpiNJQmodGpML5CddNYS3yTRmzwvd2cTRAl+zvL7kTHN2d3j7SlX7FIqbGrxnMe2q8sz8Y10gh/fHfEZTntpiwXXFeO7chKSGY52x2lqZrlLFlW09rccm8T2aoiyhi5TLFjkaPvnO98MX9zOX5cHufvD4+P57f95d/tYz4+nf8jQD//BQ==);lineShape=1;strokeColor=#000099;" vertex="1" parent="1">
          <mxGeometry x="877.0372418345469" y="620.6163096073353" width="49.83629842431226" height="61.87561204294818" as="geometry" />
        </mxCell>
        <mxCell id="2GjTwDZbmCHKGKUoSUDR-53" value="" style="shape=stencil(lVbLbhsxDPyavRKSKFHUOU3/I0CcelHXDhz39felu9DWVLxT5CbLnBXJmaE08cPb/ul1N6Xwdjmfvu5+zs+X/cSfppTm4353ni+2mvhx4oeX03n35Xz6fnxefr8+XSOvq2+nH9cv/FpwjUK+glL4vWxkJtW/O5+X+MN8vInnSBodgJly2gaUQJkdIBkgbAOkUEwOEJkEpKSFanGAQMIgvlHRIT7F7fjGlMRXAFvUhLJvkRILiFeqwRcsFBoANNLmEyqUCgb4DnHGJSgVf4LJolVYc/I6KrF3eaupg/CKUAOyMNZ4ANgO6JLJongdFWs0qEFjL3EFmBSBMKqZxwspKymooVaK3gs5UEEAIR6IixRADQZQr6VkPKAalLI/Iabu8K0uRa/uAqWkuZ+/HkAZuEHNLL6CQAG0qKWRhEiC3FbGgqXbe8sKYWgQE4OBZ2aTYeAliqCCGNYKb1hGE8+OiMPUxrJo74XXKCFApui7al7IYKg2m7mDLBT6+cOAGrrdV+JsAICUSu7f6wDzH5IGyyglrf0uus8cdyl3gDGTAXExjFfVDfn37dB5XU9QaDcbekO8UAREr3fxGp/6YL5fAYknQYUqIMHmmxee2g64qt5Zodp7BOQTxseCVAqAsjBenRLgOErj3W+qQvmbbzzBZjQB+cs4jbLA/D/6Xvt/vC3+PQ5f5sNheVve/j8+Jm1reYjy4x8=);lineShape=1;strokeColor=#000099;" vertex="1" parent="1">
          <mxGeometry x="947.4361265481652" y="636.3457079921279" width="25.33501429353464" height="10.080919967480702" as="geometry" />
        </mxCell>
        <mxCell id="2GjTwDZbmCHKGKUoSUDR-54" value="" style="shape=stencil(rVbbTgJBDP2afW1mpnPpPHv5DxNBNiIYxNvf23UD0h32KIlvw9L7aU/b8dXL6u550QX3st9tHxfv/f1+1fF1F0K/WS12/V5fHd90fLXc7hYPu+3r5n78/Xw3SA6vp+3bYOFj1PNMnget4D7HL5G4fH+4HeXX/eZEnpmcM/JMAuSTo1CNfCBJ8/KSKNl43MHhWfnqyOeJ/RyAvKZn4/caIXJQKAXrwFONQKFStBlzpszzCt65aU1ToOKBC6FqXWShhBQypWIUJECYawNzVdxA1iKUo1UQEpC1MFULnBYOJV20rhMPiViAgraS9SD5AP55Ba267b3CFFFInoJVSEIOhdQoRG2mi0IKRyhnk7ZI64TnisuaJgSABmjAzTo4TvhsY1j7nvxFnVcOEz7b2mLtl0Mr/nF42FMCGJyZz1iI0bg1FJCZGBSpJZmijYSq1NCYVBIUkvKkhUF9opBaIj6pwz9ptMtBg/JgO7TbR+H3iFub9aakgci4NqwUIWdkqrb7tNARyKu1CSdFmHGgYElPB7yC8XRUrP2sBQKM1K6eBIehHYX4i/wkHoVQQPxNvloxxKhNPX2C90WLF2W0/aftkKggqrjwmvpdXh8/p9uyX6/Hy+/0/+mpp5/GM5FvvgA=);lineShape=1;strokeColor=#000099;" vertex="1" parent="1">
          <mxGeometry x="954.2136561597631" y="656.3379121298956" width="22.31477732357202" height="6.467137514762596" as="geometry" />
        </mxCell>
        <mxCell id="2GjTwDZbmCHKGKUoSUDR-55" value="" style="shape=stencil(jVfLctswDPwaXTEkwOc5Tf8jM3FqT90447ivvy9UDdUAste9yaZWIIDdJTjJw/v+6W03cXi/nE9fdz8Pz5f9JJ8m5sPrfnc+XPRpksdJHl5O592X8+n76/Py++1pfnN++nb6MX/h14JLgXKfURx+L/+IUC1///m8AI6H1w+AkikWC8iU622ALpdmAFwotduAWKnZCDFRl9uAFEmyAXQS8H4OFGzOsVGLAMBUgk2hkoAUciZxVS1UAwBUHyFlagkAGqVkAHNMtKVObItUAyVUpU7N9q1HDGhUqgUkioAZuuPo+laoMGh0p2LL2htlxAz2VOod9kHWIq7UCMoWgOBGgX2IhABxyGUFVOqgTHGlzgrII63rAKEeLUCIkeKEsougtgAEEfNYHoCmogWNiFp2sYAMO8eZqi1rE2oZdI7H8gpg6qBK6nyu1fcAdZM03lKWDQAnrS7gq4TLqhqtTkFhtPIWQKxtzNRAGi2UnYIyTjpuNIrprUbHbktYQKI1cfZ9R6OiThd9CGQDrJ1z3qdGA+xYD5DoIqiVIUGkTQRslqpRcY3AdnwdgHLQg982Qk+IAqqkALaNULYE5DM8ltdTTjUFDF+JYOktbVjbdfJRse/rF1DbVtqsTGLIixioWQAmng4O2QpaLQaIpyRvAHPJQMLqQMkNV4J5FzY562iCiNfZO7E2raPRpFK0PNJzG42Uat2l+AgNn7m82RKDunIaJrcCCgkgnh7SweWQKSB5NqrWAJLAsVin3GRbrWNsR9zTFF2VAkWkNq2S3ZKqBw3eSmbnxEqNjqokvg/zXaADgH7P0lXSOF+uU0NHe8dWGWPprQGuiwcUoKAU/OR95wL0Hzcmffh333o5HI/Lde3jur+f6V/L3U4e/wA=);lineShape=1;strokeColor=#000099;" vertex="1" parent="1">
          <mxGeometry x="923.8256601306352" y="589.2281930104116" width="16.0768321801327" height="43.57824177289688" as="geometry" />
        </mxCell>
        <mxCell id="2GjTwDZbmCHKGKUoSUDR-56" value="" style="shape=stencil(lVjbUhsxDP2avGosy5btZ9r+BzOEkiklTKC3v692drystdkDvIXgE13PseSD3Lw83D4fDzG8vF7OP45/TnevDwf5cojx9PRwvJxe7dNBvh7k5v58OX6/nH893c1/P99OJ6dPP8+/p1/4O+MK5TiBYvg3fyGF4vzNt/n84+lpdZ6VUh0BlVLYB8REMgJSoJz3AcKkYQQkCgwAhZqzUKmWfUCKVHUA5EwxAUD2FpSpgaBToTLGoJUKiME8TjIASiZGMRigDIAaqCKXrHBj0C1QAJW2MjkLzVoDuBQtS6MFDmYC+MT2g86nDCvHTMJj1IWq7AMqhbFwpXaTV88r6UgHLZRAZ9h510lKAs4XUteqi8XrAQefIet2AQFz6uTqgNgoNABo1NIIiMTAgpW5jjXgpbWu89P47gDYgiiF0SWlDEJIQnXMKm67bFUYfz9RAV33RvYlAKZcASCTuCIE2NemDnmkvyUNaV7ZiKTJMJKwkrpKLzFn2Bel+CJkqyPIamWKY9CW5wgsVCV2IslUEJkb6ZglDV1nrwKaFY49IIK7pyWK1QMQn5t6kTRAA2RodWMhUkAuNUptBEi/gnckY+n+BWF3CRAZM1Ec35QKMGFBeECFpbabg10hWheF64Dc76ZFuAO2EEmbB2RUiOA5OlkAQdfqpXiKARFCvcxoxRYyad7UAcRgAHG9kTun9gBOyaZmAsJk1ys7ysWuC3tZahuOQkLwxsI7lJOe9Y+SOvdm/qhslC5DK2FS5FIjVp+lBtJqgObmjIS7tW2UTCkCrZxccr1kkxISAQvaubT8xG5ax6CNQAGpxmcBRUjUBy2gcOaxOMYxFFeji9tmssDRxOjibkUb9QXd7MG79DZXXx9O1FdaIuRDjn20WIYNgbqUmtdWzpTxrhFHPrQ+9u7NY04pbSpltMGlPt8tITAc082BOGrANJWCVrIJL45lsDUTaYANbDImSfAGx7WPU6vOCGiX2azeVnoIqJv7ROGubkmUzVJZECD5daYaHUBabUptY9A2o8FdYDOq1wR7z1rDdXfBlTaAD3op5Z5LwalMgkppQbv7JLc+jV9Pq/itLzPe+pKf4KyX0BW3zHertRI+mZCOSbVlQBF9usatziNCc5fp1RMO0rDgqWASkkCCgl/rU+yvTHvnnT8ML5Jl1lyJNsp/8EOPNKhf7FkwPaKhlvPaIgUOhsnvDO+8GmRPYzvP8Bnjc6+G75+3D29PlPenx8f5hXP9f/+kaV/Nz6Hy9T8=);lineShape=1;strokeColor=#000099;" vertex="1" parent="1">
          <mxGeometry x="986.1154835196771" y="598.2187273183401" width="47.89147983931961" height="67.78862647019228" as="geometry" />
        </mxCell>
        <mxCell id="2GjTwDZbmCHKGKUoSUDR-57" value="" style="shape=stencil(rVnLchQ5EPyauVZIKpUeZxb+gwjMegJjE8awy9+TvRMaWqXpNETsbdxWtqqyHspSn/TN1/v3X+5OKXx9eX76dPfP+cPL/Un/OqV0fry/ez6/4NdJ3570zcen57u/n5++PX64/P3l/bZy+/X56fv2hn8vuGwSwoZK4cflSZDa/3vw7rL+4fy4X1/F8rTepMfj9RbE+rQ+RqlGACqtzIAmiVhkRXKbACmLMZPwvjQBNIgyk9p43xUApwMBVAmzDzlKaNTpPpuUOa25eVpBdCI+5CTBZoBKISbBxegCXSTUY0BaaAUNxgBRyswSiGYsRXCifofGAMjl5gFshyLqLDIxRpKk4Ek1khhR4pxIhrxIx+uDL07EPRFKg8Q5yEijlJk9Wuf1aTBwO4tEZ3u0ixJ++qjc6/oy2sdRhG0OgGZKUErS5yzVSPsXSt11CzyJZAetkmeT4FVgHKnkuQ5QGZkEDTHN6gFKTLIktgBYmqJyXZ7Ch8x6ah/NZEdrJE4X1LLLDB1PbgPAkgtcof2oZGkzICOUbIfi+1HOI1luA6qnNXfppKeWJsX1VBuxvw3oPr1LkE7iUMNoV1cACojsAICjtcZh5BGgzk7XQiON97ke0wIt0XotyCsARUsiXZMv0Wa0y1T0iNnp1mgTqDYMGIAOrxgABTnv0FWUnM8t+k7ZbfB2G5CluB0QByWA5bgFILFeHL1yg0ms4nr2yYcnkQP6wlIlnQ8G9OoBRljqdTFJ6YHS2yBxbxKhtfeRzHunSaQBcCoGgMJ38MlnVLr1axfaAZj8BMAcrYUqYrDUHABEM0BdIl2pcIAB6w7UJBuZswNktkOWWjwgMZZ08aGMVxwBcvSAV3ZISxMwvoO6SOcxGBwB2gJgo8yv3NzVQyOdb+sRyQPYwb6RGD2AHVkIkzsfth14TVfzgM5o7f5AAQ35lYpzPtg4Yg4GjUWpb8QxXrs/d0EcO1EA8J2sjEn5fwIEaS7UnaoTnFmuqHc83D5Hu5cnWzCZ2gDv3TvBJBbEQ1zPINKOIYD8Oco1GVRfnxtNQwYz1bfoe+iZQo7F0vwp15TKEyhXl0wtULUBQJojB9XHBkXITndBsck6Dshz4PCECdFiY5S/AqIkUhDrQAD1XRlAvb63MGTd0VDTZx8wTrO+ATXvaN3ufUh6WxsK7DoF1SEnfvNmCQMyy1Zwsg5mLDVskevb6EfSextfHSDQOGAMC9EDWD1o8wevRuoD/u0ak6ZR5bevEZBL6llqxKTY/HWa8tuxmLwmU34r0HzcMO4y0Yf6dVeOSue45Xpvy20WNWnOnkqjbL7Tb8M0tb+6ao70tFoqZ7t6I/bE6FW0ZR7ihdGtv5CTJMUxf/3ujWmVGP5kBySlu4uCD2wy1u71oSXaVPN1stiFjd5chyUvjA6JCFNd7nHoBwEb7Wd/+84A2X9B2PoL65HqayEZlTHbR43ZpNhoLqFWovsKksbV62GPdDdFVETjnMlzGCKVSVivzgPaUbf1sz2Bjg1Yb/6zEtP0OfqsCLwbJc9PoA0e67O59YHZn4Z7u/XMHvUXRFwIY737MhHGgXKUD9Hbw7o71pv3V0lnwXqn/QO9V/njz4avrsePX98oP54fHi6fOPf/99808ejyPVTf/gQ=);lineShape=1;strokeColor=#000099;" vertex="1" parent="1">
          <mxGeometry x="787.2544443225802" y="615.2695028296907" width="107.54021236091701" height="183.2391288857717" as="geometry" />
        </mxCell>
        <mxCell id="2GjTwDZbmCHKGKUoSUDR-58" value="" style="shape=stencil(lVrLbhw5DPyauRKSKIrSOY//CBBnPVjHDhxnH3+/1A7U06K6y8jNmbBGTZEsFtlz4Q8/H7/8eLik8PPt9eXPh7+vX98eL/zxktL1+fHh9fpmf13404U/fHt5ffjj9eXX89fbv3986Zb9r+8vf/Vv+OeGi4Vq7KgU/r19kqjI/x98vtk/XZ/39kyVJ3shicA+kshk3yjUc/tG3CbzmInB8yjl+etTHN9waC+kabLnQDmc22dKdbLPgWo5t2dKZb6eRAE8fyKZr7PYNyRkn+ZwKVPIyD7Pz18jBfj8wdkXKsA+UwyzfaMK/C2ks32LVMHzW/7k4gEZPFDc8nH3RA3daKAyh6AqBZBC5kNxJzDMaU7UdA5apQweiRuluQosygoAWSjOt1SszABAAvHsQ8kw7yT7OEijggBWmbPTIsQKAG05IcLSLMHndlYYaQO44s+ZKj4hzqmRNzo78yHMAK6UkNNKcY40Z1IEyNRmwuM4KOcYkEjna0111OxZapT5low0kQ+5jlvfAJbwoIAsTHVODavBDEjATnAVF3V4deyD3cl8S9bnYFuQUZA7AKqHnnwLgEEjLDJ4bgdA6a3WaNYTQBw0eyIzQAS8pErsTpARmWNA893H4oAirWU0mx0gg1sygKtp6+co+YxJgxMAAhtQDV4xMK5pI3eZWxYrLNHePuYTcoYV1zYJsgHayN9jAHuVJPYJA4D4EpVCgmSYDmLc0X0AgWuN4ux0scChxh4ChfkIkz4KnDhCKL7Y6glf4+Db03uai7RnMKCBlha9hPO1LoLVBBaDSFTT4/MjWbo0cE29ImanW4YJbrzhrtWiH4EPpZLM6WfRb4j76uChjQbusTxGqO9aDas4A3D1gAJCXTaRtwOgGipl+LgBKmRLA9TiASjU/YTsA1ERQL3sa1t6nQEcvfZQ42t1rboVmH0WaiddOwBFui4TgQ4RdQxonl4NADtv81rXAIoBrkZbhY20LNLVAAUDeG7VnT+BoOlOqwcIAizU194ZzKoXA73icAHVlQVQPahvpAbQd9J7cRrNfr2AxANgLh2VqICuVbZk3gHQ/N1pxvmgsPN2IltqGipRHV1zX3H4hN8DaFpuyYYU4LQ1zeJoJsEC6kuJ+ZZqhdNllbGl2gB5zGrHgOZTw8RsBD6Yxspu05LHQ55pBye/rWiRnrnf+m4Gr0hjiadK01gRAbKnSrFrRYIpDlLZDe1ourQwuVuy0QvGIfsxKAvsDz01nF7HzGdTjUs+xuLY4lrdzKEjlGf1UNz8mnA9RK/hIlbTBhAHELip0GXKjwz3dipDnW+Ad3yoByfAMciEMHsf0CPZZNbc7rfCtYBFOjd/rWjmsEg75jMAA5rpM3j1gIyaoniqjJgE1iVWxELXCrLMJJDCmMrPdiGcPQCltyx03/c5aNsifoCwGbyhNZl1NAdo2IfmC4jxIxkx6lyirHAPX5KfkHPAXZT9wGFElpDQTX6k7oszdEL0K6YeGXxLbswShS1LyjJQG/EgQPSq0gQRo81d8crYqC2h3WDwHcjEBJrxOfs3LjXAoSmpr+kuJtC+P/rA3cXE8aKiLPMDQ60R46IqZaxTjqlyEcYyWtJx3Cg7xZdh6vF457ZzAM2V0b9EbAFmavD+9p0ZCHIYO5XdlgVtKJZFkfXHBgKwvg1h2J+jX/NLhL0wjRlhRy4ZUDD7dyfGj6j9i9/LmkeCFIznX+vlcJHm5YhCVWhSIs00wTBcJgzcuj7Attzf8QVnD+vLhHNz9mgstAIOiz24nvvLhZ09up/iBWSArSMuq6cA3x/GZbcVxuRwZu/iFfH9qH8rHuFiK6rn6Ai1ptm7RpbgC9bub3L26G3Pb//o4V17++P+C4tv16en2w809v/vf5FhH91+zcGf/gM=);lineShape=1;strokeColor=#000099;" vertex="1" parent="1">
          <mxGeometry x="800.5617705261857" y="753.5191954385816" width="164.05492788892553" height="138.1286570823545" as="geometry" />
        </mxCell>
        <mxCell id="2GjTwDZbmCHKGKUoSUDR-59" value="" style="shape=stencil(lVbLctswDPwaXTEkwOc5Tf8jM3FqTV074zh9/H2hqlRNSNpObjKNJQEsFsAgD2/Hp9fDwO7tdr18PfwYn2/HQT4NzOP5eLiON/0a5HGQh5fL9fDlenk/P8+/X58my+nr2+X7dMPPGcdMoU4odr/+nlCQPwefZ/vTeL6zD0LiO3ufqPh9QGKKrgMIk6R9QE4UpQOETLHuA0oi37uUPHHZB1R1gDtAZsoMAIk4dYDiKYIXvHPk+qirkEM+1ebBAojkkU+FfO9TzeQAEXpfKD2gUAREVE/VvFAxEdkC7vKwjRCqbJ/IEQAccbBBFFRN2XKtaQoBADRNyRKRQF5zaA7cUY3SpC/E3AN8O9mLwSiiaJYAQLNkAYUEMReIYw/QNxEPxbYBBSBVq+a4WEABjUaznqONoaL6VpdMabjW2/YkV4xGtfeBalWAFUSgALI01aYpvkQBxZA2NOpQDEJsYqiNmW3i6koPGhXQQ4krxVXIg7bGsHKJAdNZO1k/gurSSPYEVKNNKwMeVKK1r1YljpHiPgxwrUcsIyVCPSQdWn0MKVACL8TcaGqAqP0ZlEbQ+/q0yjIyNgG8YpoF9lam1JeSd43J7alIzkxRKmAk6mV9m8xwM1lN3AjL1LXZt2wZUJm+LTlLMsmB6Sw29751gu1qaCJv5o4Katd24jhYnF4fD8YeTWWvEy0be4/sM2XrD1os9G+JJjsC5PvRHfX/9vrxbyF+GU+neZ++/98u0Ho0L9/y+Bs=);lineShape=1;strokeColor=#FF66B3;" vertex="1" parent="1">
          <mxGeometry x="980.7695252293574" y="784.9112162872348" width="21.178189236653843" height="42.160123932818095" as="geometry" />
        </mxCell>
        <mxCell id="2GjTwDZbmCHKGKUoSUDR-60" value="" style="shape=stencil(lZZBctswDEVPoy2GJEiQWKfpPTITp9bUtTOO0za3D1RVqUBbv5OdTOORIIAPcOC7l/3D825I4eVyPn3f/RofL/uBvwwpjcf97jxe7Gvg+4Hvnk7n3bfz6fX4OP9+fpgsp68fp5/TDr9nrpHGCUrhbV4IFNqfha+z+WE8rsw5URVnH5mCbAOl9EASKnUbqELsPWKlkLYBzZSqA0qgCk5QoVw8wCQFAI1S9kCjCqKkStm7JIWEt4EYLOzBEZUpg7jaEX89WIAWKSOfGjX2gK2guNb+1hbpmgFQKPk72JkSAJBIPbCKw20iLBuujmgAsDuW5IFCEdy6Se9TU2JQHK1QUw8kKCEDxBd4zRQUuhR8qkUoRQBY5rzmii4rt4EPha0UoaiYIsUrzSlKHFMJPcBIpNY3OpEmyrhca3eCUEOqVopeEMJLAW8BXa+sARbfBHgFVatWpCBLk8+D5b6gE2ov6klTOKza6aHCdmyJE1985iRsG3GRywrIoLw/DVhn7PJgklI0g+wOXqK2RQEC4tCHVXBYpbef9AOClEm9Q1bcCY1dYp+1rIsAb8+TPss5w5Fo9/UNw2Yug0INS//5sGeKIGVX080iJuC+tr8vCVvB+3dCi7ilWof29m3pNhvh78Z5XhZu1xvF7o2E65nC1RMMjbTPvdj+a24f/x6HT+PhML8t1//3j0lbmh+ifP8O);lineShape=1;strokeColor=#FF66B3;" vertex="1" parent="1">
          <mxGeometry x="955.8555531517231" y="764.5840104290644" width="30.894658302114035" height="8.94890988203055" as="geometry" />
        </mxCell>
        <mxCell id="2GjTwDZbmCHKGKUoSUDR-61" value="" style="shape=stencil(rVfZbttADPwavRK73Iv7nKb/ESBObdS1A8e9/r5UXSkmZY1boG+yvCMeQw65Q3p42z69bgYOb+fT8fPm++75vB3Sh4F5d9huTruzPg3pcUgPL8fT5tPp+PXwfPn9+jSeHJ++HL+NX/hxwUUhlhHF4eefN4Ua/37z8QLY7w7XgEqxGkAqxA0AEpVuACVSRxYC9WAAtVDN6wCOlJoFCDXgUgokyQBaoJLWAVkB0QKYcl8HlEDNZqllSmEdUAOxDbopD8CChsjOwszMTYB+r8gCENcBwpTYuyQgrb3ciCEAC71Syx5QkQWZPJ4BjQoIuneKNmhRpgEPCnClIZkiKu8QKNioRb0EzKmJapnrTBHUt0YtDqBpQkG0KYszQKsFtJwSwTZqdbIh5vLCQqcOOqinKYtXLgkKOpJY5tTJgmpDZcMWk9pMBQJyscR1KijoJaBQvuOSA0SoZGPQViubUEbEJV/fd1RgJM4BtEflX0pDAUjJxuJbuCQIIJOqzICOg+6++FSqBHTcrR6tuPoWMqBcyh2hcfWd4UgZpcy6pInLyIKK5aJHYX2XSYbm0f6eh/+E0MS79UGdCoA7LZ5sTWgikJbpnAsL4YggsaX7Wa2JLYBrndXJuTSnem0byNkDUEvovpEXWoZGhG40bska2xDEEHkq52uXAA/6OatMWq5o7VMlsw7pkGMQ8qLhKsNlYzFPMkMdq9QtZyyT7NwubQqueab2Wzme3UYJs6kra7TpTFiQIgVLV5zyu0ZvsAUU4BzRnZujO4/aOOpyWv15kE29I2Tvj6Dz1Xc9Q+mKjZKlK1NG/jdfnhVfMYSSa5dpX1877ya/MtJQADevVUBT/uIepg/vt7iX3X5/uQRe/+9vffrqcmNMj78A);lineShape=1;strokeColor=#FF66B3;" vertex="1" parent="1">
          <mxGeometry x="989.6527049426413" y="773.121288463399" width="63.232470203419915" height="24.348572250510188" as="geometry" />
        </mxCell>
        <mxCell id="2GjTwDZbmCHKGKUoSUDR-62" value="" style="shape=stencil(lVfLctswDPwaXzEkSILkOU3/IzNxGk/TOOMkffx9wbpUBdjaTm4SBQivXQDcpZvXx7uX/Y7D69vp+HX/43D/9rhLn3bMh+fH/enwpk+7dLtLNw/H0/7L6fj+fH9+f7kbkuPp2/H7+MPPs54EimVocfh1Pokk8ufg81n+6fC8lhfq0cgL1b4tX/VzsP8X4rKt0DKJdYgLjdcthZ6oilFIlUIACoU6G4USKWbgUqHQbcwJB83UrAVplCvIaqZWrUudCihDKVRslkqmBILOQtFayH3m7apCylSzVRAqcVuBmZKzwNSBSzFSsBZSp47SSpysfINlSNTd/zUJQD7O+BZ5pgygGubfFqRW6iClKm9RoR4yyGikZP2JjQSgKJHYeKPCKgHUUbPEiTyBft2fQGILoCcVEEftF/EKHXBZA+TsXRIEukjcrEKZTl5XSB6lscOGx9lbGCcgSwN2rsydAnJJieNwrU6iOvQJgxWwIdPkgjmdGCmoS7ZwOVBAXZuyeAMJZDVPoqx6NnKI59dVihqQD5S7rwFqXmFOjFWRUWtR3DtQLOTe8L+6KSsUgD+FqqM+T7Jen2mUHG8ixFzUznPBTEGY+6iCuuRDyBCko/k7Kms7Be2uLA4sRdCOCYogTMVmSVugAJfq0j9XsEPtqC0hrniA2lGXudusdpGKChcuoCp4AxvrjsVe47mTXQ9CKNtC6Ir1tzRb606wQay83FpfXNg9wMSOWlv41QRLV9gr6EaFFHQRZre+VDgY6sVgyIUispAv9pFEEdS6VM+5MXrAvNUsVTfcdGMAldMd0A0G5VxACs3vbDpvAyCpJpEtSbWTVWShzsa4ajQJBD0sWCxVaoAPKu9uMLpLowj6xZoKR4kWofgbVQOjU5HqeneAW95Y9KOTDwgUQql4ecSc5teRJaAt4nzsBvlfeX34d119ODw9nW+76+/+eqtH56txuv0N);lineShape=1;strokeColor=#FF66B3;" vertex="1" parent="1">
          <mxGeometry x="967.3596533912278" y="766.1561929317077" width="37.21421035246262" height="30.76296006530616" as="geometry" />
        </mxCell>
        <mxCell id="2GjTwDZbmCHKGKUoSUDR-63" value="" style="shape=stencil(lVfLctswDPwaXTEkwec5Tf8jM3FqT1074zht8/eBqlI2YGkzvskWV3gtFuDAD2/bp9fNENzb+XT8ufmzez5vB/42hLA7bDen3VmeBn4c+OHleNr8OB3fD8/T79en8eT49Ov4e/zC3wnnmYobUcF9TP+ERjH/++f7BNjvDtcAec0aUKhEAKiUqgJEJlfXAcFRTgqQGgVggR1VDciFGgJUCjqG3KgCl2Im36yF/2lYBKRI2QACVeCSvDZZShlmafRYxxArebcOKI2SrjRHKsBCjdSyAghZKrBQE6WoAA16VHNPyRwzuQDO10602SFqZf188/1z/byjAAJu3Jl/Oe+BPy31dFz8Sei8NIomRSRG54X22v8K+0DON90HPvTOWANU7ZAvnbdrAKczFEJvpbWQDSWC0NrDnEbtkgSdUdBM3ujR3BnLAHen4gntok6rKF4CvBNeZ+OSFBpZkKB1oUfmIUC8qbR8AqRVLATTy6KyqNcysS5chr0jSXImSVDvpApGgsUf1JvBDgVHDmiL8MjZ8xUxu5DX+ssUUOtUqsHkB7Ku2d73ngIgkXdzgDMCT4T7EZIkM9ZkNHuQJalyMKO5wP4vubOsA0qAmpprz8qseZ4iyFOqdtIKtRwAyJg0CtMyjIFzV/VL72DyyRyrXpsQxQAmpE5m8oyzCwkAFZMl14f1soHevFcrFRKYGyZx63qwXIUbifRUkT/cN4OryYNWNpGTZgCt52AZIOuOLjMnKPPisdOKlLhvTMsxJCsZsvUhqkrQdrGNeNeWXinWpYJ45CzxUiBG45ayMYBXpGo3nljwDmm7OUZYZpkiRpBkxUNjyvJaVvuG5qBdmvkLhbS7AnPf01cLoEvMHgNkf9IVk9uMR4C7L2xfA+Thcj982e330/Xy+r29T8pf012UHz8B);lineShape=1;strokeColor=#FF66B3;" vertex="1" parent="1">
          <mxGeometry x="1037.033120365341" y="751.0694013811424" width="48.24323730919885" height="24.342186329458855" as="geometry" />
        </mxCell>
        <mxCell id="2GjTwDZbmCHKGKUoSUDR-64" value="" style="shape=stencil(7VvZjlQ3FPyaebW8L8+E/AcSQxiFMGiALH+fckZuruv0rQYpL0jzNjSuts9WZ7H7Lr36/P7Np/u76D9/eXr8/f6vh7df3t+lX+5ifPj4/v7p4Qv+ukuv79Krd49P9789PX79+Pb535/ezJXzrz8e/5zf8PczLlRX+kRF/8/zJ6W6Vv775NdnwIeHj0dAdinsgOZiEIDgytgA1buQzgHDjf1ENboiNugupX19camdr6+ut319dzmfry+u7OsbJBLnz67FfX12Jar10e/rmyvCAon105M8f3aj7uub6/V8fXO5bOtHkOcfLu32Hcn5Lh1i0AbwKS9dbgwGNCFB6GyCuYNQaYwcBZAhDAGozidWktyhswwdnwgvTcFFMlvVbhHX9x38YggZUl5heAEEaTgAaAd4alU7IHR2GVpaUp0ByDUqvFHE/gQQWfhFB2eAvAtd4i2h0+5LOa2vOLND24+EPb0CeNfzBoB3NQGALxEgDMkAk/J25wtwbxHS4Ly4a6m5IcwwOWlfnxcpnK0PexKB0kQwYL3n9UmdP3K0BddVdOL7SaM3z7/b2C+SPVufeH0RTof1tdD6qM8zeL1X65Fz+DxeMDDW18jrlf7BFJnWB6Uf42/eZXUeRHGj9TJiCuszyBIE7k5Bj4hUATZc2XM4AqwLAUASVBTBZfsPEV3SVUgaS4MXAD5RZUh0dbdZrpIkcmGnLkF6RUa2IO7N0mx5uLibbdaaQq04wPC8Q1G1XWTDTRmEpwJAdoBUQR0pcR5H/khqB6QXsvSQli6JU1qqLgo2BcDvzgdfUq4BoSl/IGdlwV9TS7taESHKveeREgMUY0y17gyArFi00NUzQCV+eI4nQHNNyZBdrgzIgoWLYckJUJYuy0wHgHSNsir9owzqSJUjDlpShTAAVOIBILVUV6Y/WFrl8mL6tW8d4nXA5cSHAqwqLYFmdjsg4pKQATVmJqqMsmmuwXBrWcRzHZA5RMGFVR2pcoUEImtCrWh6yb2Ll11YHaYQLkuqMwB1YTPF6B1GYDuounYCyNKa+QCouy+B+bpw7zrY0mA+OVwYTMbxhuHG6uoOAdT1Dm0wQIVoQ+1laKYK12ieu2EAgjhSu/SNhw5GqRUAqidngSViusWVDY47qCFGZEtPGYQd2qUj+k5uBSAbO6iiG4BmLK1YAwBKu/AllVBaWWORA/OpPN0a92FZNxqtc82XwVTKNQZX6qiXlJa6Z7q/wXzdUmWT06He1qTmUJEpS89JzU6VGQ4vDDdMAKUuZzcjcmKf9b6QYWRT8yVZGY/KU0wQmaqMR+PpEABeA2xiVzXf6FeosgtvHWNp/XCkqI40logHgGINALrJD1W4d/Ce02iKsrUfNsklWQoAQFw5R1Jqfo7KuTBADQJhiGJpQ1mucUDMSZ/2DSork57Rw105UUMGkbMAiEZLUWmp8Fg8XYY0pwBj6ayCuq5O8tiya0Am1/CSyQAYJkaDkqGZYmPIwRhcg9Q6AcoOfX3fkTaU85nrAwBUtQ4Az1eDNpy5UILhVJU4AeR8N8h1rOnQwflUVpxCJwaoedGPA5pRa5M9zTAjNZQCqmAaac1ujuW9EjpyX4YGQk0dkUYpHpDZh/BWJOpqepqsSgEzGC9xTQrPig0avaOJVxmlx1W8XABVhigKJhpslJs1HAud5HCzGeZDhaUu+FpmLeUq1drMCAuuoZgP/UAz3qqaoNmiEFVmWZ28NHIL8NLI/QSNXL5SOngltLmlTHXx+RmAK7Kx6pvvPBK6JkX3ELqYzk9x67T0vkMJmmaCuYDIMh5qM3Sv7zVr5n4AAPUWpUYeJYK91SVKAanYSxQ1cO3mPqHfmp/S3SDSrhzpFmaNfON6AM5H3NoktyJBMXsnWVW+XEAsInu5gPgJLiCqGUt72bwWO2up8p1MaeYGb8h50ZSBLiCSPlLli9FZe2tLU9OEGFT3CZMYCVDlIAQBRDtUPZEql0cKF0CUb65yM0fSNR+YlK44pqKFa8xJo2k41GwGTRhforQVtFcByTR+YO+g3o0l07EnWSQmz73ofO2jXrO01QwvQChygjWfUO75ocve9eU50e3nRPwcR035X54T/c/PiWxSkywRzQ1FlTQUOzNjCLKpmvloN1jociQGSqAQnjrQTz+DadAlq5i0PO/U1Q6d2R2VszxS57YN+UMK3a+8RlUtDwB9F3p2TepxaeeOvg39fLVeeeSrSjzYgcrU3taep5amx9ZeXnZ9q8QvAH3NHxsLPcotOqL+YjTZGIbBzjfvRPQLc2o9Dxc71xGep5/zskm1w9ygjy6LF0ORUJLMaZwyh87igS+JhuZgz+fvVYan5xQLRy3CZuYeDZGgONhzJ9Kq/hmKibQoBySRKbt2TUc8pqpF+mjhn9HUIJsKW5p2qR8TAqXI2TkyRjJjZDWzDYkJe76kV1FZzZHCGn6cAWiiehswzDBFzRXCZU5xkEESBbpXzwA1EAqNc0hJcpKHRMxaSrK4mwCSIcuOeQIiA9Rd0pTBXEmogn9qKTJAjZEBoMfK6KPkT4Kaee5WV2d16ks/9ju32wD88e1nde8ePnx4/lXe8f/5Z3j46PknfOn1vw==);lineShape=1;strokeColor=#FF66B3;" vertex="1" parent="1">
          <mxGeometry x="1064.107291144233" y="673.8890129629688" width="163.63916213654485" height="116.93627928957736" as="geometry" />
        </mxCell>
        <mxCell id="2GjTwDZbmCHKGKUoSUDR-65" value="" style="shape=stencil(lVnZbhsxDPwavxISqYN67vEfBZo2RtOkSNPr70vV0GZFecfom7PxmCI5w0N7kjff7z98uztx+P7y/PTl7tf548v9Sd6emM+P93fP5xf7dJJ3J3nz6en57vPz04/Hj5e/v33o3+yfvj797L/w+4KLlWrpKA5/Lk+4UYn/nry/AB7Oj3uAUMsTQCIJA0AgTjOgUAYWlFqYvp8yaYEGZAbkQqIAwBRmFwpTQi4kinUGKNUKAIVSnADVfiIDQCOdLWikGI4BLKSzD5pIAUAC5TlKKpQaAGRK85Gqwjyk6C3UzeZ1QKIyc6+YTZC4tFDDMh1AWHPwYU3GPZC4bD7wTFYTCDhSZpJFP1kAoJLO1GCmCPJg3IyzfjiM3F8HKKXgAQH4YGmKOgFM5CkBCybIOUoxQz0UoSDzkewJAsRRIrY8pJGZ64CwVA0hRhYCpflIlsqGwhp8pi0zAdB7PZIF+obTzSnO6I3z4I7UiwAorUaNNjutOlJ5nRqJpM2AQg0B9MqRkA/KnhpqmQF50DwUvIuSgLBq85ruhAeKa9HrwQIdQOUzQJ0zbYRnZIGpzE5b7hVEqYkvZAUXgZYH+3eABOpSK1SjBxQEUArsfUBdtLVRhXYCqhjgZpOy0fFgEghDkRuiEKPMtVG3dp09okS00ZY3QIMK6mGanahGrxuJWAANHSmP+WsDWMtATtsIF72FigBGVye5QBUrqIqPkiC6xqHIDVAp39Coy0OmggHJsU/gOGNO80JXBm3UwpoWUUdEjTSCuJMcGpiMGm6U7qJGTtcxy++OFBBAF8mZ04itVlzXsCIfmm9yPXHYgmujnRr/DUB5sJlwnqVrhcO3cYlnxd0YvrX6jvLalI66Yp6p0XAbtRO7WbrnHnTFuljYVc+jIa6pN1HR9K1+MTOvkeRsmudlqckIkMacuttRUL3P4o90oxrbUOiWmi4IkAgDxFly9gRxw1YOnctG4tHsjwBu2hCbNpCF5Ui8DY5HAJdp208R+/rC7cZE6PPraLGdaFg8XDhmdmOqGrlDdN9HDpt6XEjTaJHX5Rl8B+3XIoBGBnAG+Iae0+j5u2sWJIXeYOcQCcMe3XnsAIIX0bDsZEoFsaL5utoXeMQ7HYV9004eQ+YR73Tpb4xK0rLP9N6AAJHKMlyhST0tRc9KEhq8U/LcVhm1/OiexR3JlrgA2CrVZ9pmGwVHMvXWOXF9KAVRsm3e6dkADU3qy7Zh0xOja0deKkwdi+P1Hu0rQG3wbqkst10Ct8q03CEWSKTor0xMHaiPBJ8zY6KAAC2bj/GqgRIZvTYlYeX4+PeIIX+XmzQzmdCBsh+fY8MelLFS7ABo5InVT/QGqCAHUf29r4UZDYYGaAugApb2E4uPUkH3vmGsFLvrw4KkGZbbQIELawe4G80MW1Wn6kINRKWeVzePVKg1A4i7AtXx5CgPbu/hhhP3369BbgPsw+tbl0/nh4fLS5v9//1bGnt0ecMj7/4C);lineShape=1;strokeColor=#FF66B3;" vertex="1" parent="1">
          <mxGeometry x="1226.0166195121906" y="670.6556840690771" width="80.81666994040657" height="61.40608086805352" as="geometry" />
        </mxCell>
        <mxCell id="2GjTwDZbmCHKGKUoSUDR-66" value="" style="shape=stencil(lZfdbtswDIWfxreEKOr3uuveo0DTxViWFGm6rW9feoaciI7P0Dsn5ieR1CEpD/Lwtn963Q3evV3Op5+7P+PzZT/It8H78bjfnceLPg3yOMjDy+m8+3E+vR+f59+vT5Pl9PTr9Hta4e/McSQnE+Xdx/yPJ47//vg+2x/G4429F2Lf2bNQzNuABJLQb5AoyjYQKnEPBCaftoHkqfYuxUhctoGsr/uYU4ZACdalnMmDGKqjyB2gSySQ1hpJDFCpoB30dQ/UROIhUFMPZBIHAeNSLeQDADLVPq26hMNBW5cqJbSDUGILVCCNylatEwDUWgrlvHIJ7FAS5bIKGu2gJ51XaUVAoOxWBwekoUAxQas0UAyRsgEiBXBwJTepLcDi5H2gUggW4AoPrhhpCFVQorqeiN3BISBRchYICCgU2GYJtUoVQiz2HBxvA+wcOWcJJNdJnMYnLUJUQRqEyWuhgrqApmlVEAG5pFlclVzBR11jB9zkYUtNcb0FAlSv1QKo900VsSrSiEootG59cxCo4X8d4FWRMgWQ16xtpQe0V8Gx6JsDy5RTbQAxJWndepmjFR5cZDt4Y4YVIfq6jyEIjMGzlYYveMrZbqwXIgbydnYoSmtUG+amoAW2DGfvGb4V04Z57p1RjYDBwJSqMWeUfJt715rN/XsbJWuObgvJlqRrF9H78m+L3ZiDY2XXbh5Xewbe8JK5qz2agHrp5WzsK/InkLe5R8Pmq9fy/9vrw/Ub4GU8HOZPiNv39ptB/5q/N+TxEw==);lineShape=1;strokeColor=#FF66B3;" vertex="1" parent="1">
          <mxGeometry x="1047.3644412137432" y="877.797111529384" width="30.645652775714815" height="78.0383340438555" as="geometry" />
        </mxCell>
        <mxCell id="2GjTwDZbmCHKGKUoSUDR-67" value="" style="shape=stencil(lVfZctswDPwavWJIArye0/Q/MhOn9tS1M47T4+8LVUPFhMzt5M2WsCSAXRya+OFt//S6m4J7u17O33e/Ds/X/cRfphAOp/3ucrjqr4kfJ354OV923y7n99Pz8v/1abacf/04/5xP+L3gPHk3g4L7szzgRLn8e/J1sT8eTjf2sb1t9qFQ9WN77ylLD/CUEgBUyrUD+EhexgB25HMH0BPC2F4CcX9BpAjso7QA1wgoggylRKWP2FHJY/uc7PmOnBvbV7YZ9SQVJNSt530kKIEAaiVmS1mN0CMJvYgEpqgoIHYAKRQAIAdKPSB5KAp9HfskZSbPgGVHnDpAEXIAIJ5Cf0NVJwFvPjeaVoAyCdKqAFNr1UNl+2KzVCoVII2wUUYpJECrc+32MZRMEd3AFJMFMAhai5E3N6CGFPKdGAogThtW6NVaXbtzBKh9PSjTDJjW+nJGGtLUNboh9sTVhLOkWe97Ri3k0A2piXkFaJUDLQWhEC2goixpTnq13jSekfqS2/iER4MZVhq1xwVhiUitVY1KLpo0CQnoMwpIRkxrHkYusYnBkeCg41bfiIjNSNcKKmBEK3NG33ONIjGJHdFzF0BtI92JAfGg+i79TJ87GS7qbOSqrQoQN9eo2RqYEorhswCdgb6vUR17HqRVuJXwOrMiBUBc3IzRJK0v3J+KCuhrNIbGzGjuGqa5QqaLs0Nu7s9ArSoE0++9tP3pvksqDWcBGUgjlTahbhZKtGzEbBc4n2DFSbJNQIsWxaA7tilRnZMZVZy6FG1aC2ozq8crcVrTeE83TUCkPRmslfYGTUMAgGppkAztiy0fWZNwn2e78elO6YBUNby8OR9wwFbZs/9oRpPf5gf449t+eksAsHe2cLR/oFGlw9jk08P1c7MbynrCyJ8+n1zghvHZL8//2+uPj8/cl8PxuHwl3763n8X6aPmk5se/);lineShape=1;strokeColor=#FF66B3;" vertex="1" parent="1">
          <mxGeometry x="1047.966596179816" y="871.6676964945241" width="44.34672166993746" height="40.33006897541392" as="geometry" />
        </mxCell>
        <mxCell id="2GjTwDZbmCHKGKUoSUDR-68" value="" style="shape=stencil(lVfLctswDPwaXTEkwec5Tf8jM3FqTV074zht8/eBqqEqQNZOe5NlLQlgd0Fw4Ie349PrYQju7Xa9fD/8Gp9vx4G/DCGM5+PhOt7kaeDHgR9eLtfDt+vl/fw8/359mr6cnn5cfk4r/J5xHKnwhAruY34TmFL98+brDDiN5xUgVApZAaKn0CCgJQXIjrzfB3CjFhWgSJBgh5SJDSBQiPuAHHqKHZAitQAAkZLTSTtyDgJy0GUtlNI+IFbipgDset3uV6mQj5aHUgCAe9UXgCQNABJxNUwXcohpT40toAGmfbLSEAAzADhKJulEERFHoejvAzFQt2jfsFApgfVDL/nyfez22Fm/aR0Jyw4knKnq9aeMQPzeE2vOZMuIKMg2ImGxAGVLyi1YAAOhiv+LNpsswUBGIlSbdIQhiRWylpHs6RALzTY9DuTRDm3DW6aIAJW8sYKDQhLd5I07HSAuSA4GkCkBKU3aM94psK36xbwrQEbiW7ruKiQPdigbN3Pvs/ebZNf+wkLrUtlxZ9VS5YSFRKwTZg/NkyjrbiEZRWCFu99jnVrZQRElaYZadfiUqrF32+UcpALiaZWiSQC3L++WAFYN0uMtstZEcsQghybrmfFiaTj3kxYf6CRqhizk1P/uAAkSNWFRsdOAVR32Ts6old0CNLNUSbfIIk4AE48np7+XEcgDpW5oi4sUd5zGxpkZzhbSSEyFGjkQf7VOlnOrgnhkUDBW85EqOgdlOtIZyJuAD07T4aX9OdQdG7HmwC+s75205pSaAECo4l6j7CkkxFrtJK2SRhOe9EMzB0tZM+pgMn1oO0vdMhr+40YZFSpbWrrfDDCIuP++8fwDQB7+XrBextNpvp+t/7cXMnk1X+b48RM=);lineShape=1;strokeColor=#FF66B3;" vertex="1" parent="1">
          <mxGeometry x="1099.8328906679126" y="868.8902761802037" width="22.356786053219693" height="31.351142140934893" as="geometry" />
        </mxCell>
        <mxCell id="2GjTwDZbmCHKGKUoSUDR-69" value="" style="shape=stencil(lVjZUhtBDPwav6o0ozmfCfkPqjDBFYIpINffRxuj9Y523S7efKjnkFpSa3Zy8/Z497LfRX57fz1+3/8+3L8/7uTLLsbD8+P+9fCun3Zyu5Obh+Pr/tvr8efz/en7y91kOX36cfw1rfDnhMtU8wSK/Pfjh0CZ///y9WT/dHhe2DeKZbTv1IB9YEphAJRKuQJApBwHQE0kDQASpT4AGlMUACi23gxI1DoAdAqjk3ogRkdqVEZAE+roSJ14vEPVJZCXOqVxhyqUUBwUMLq1NBhovYMPHFNPlwFRSKqnxschtwHJe6lk4gIA2cI0X5otMtuASm2MdM0UgFtF4+rI1yE1JFF3kU6UgZekUxzd2jTS4TIgJWLx5CuAfKkRpxGgKQW8lCOF5HdgQI1cSdwdqpWFTUCJ1B2AYT6UNb0DRXDpWiiOgVPydVTHorHfAKkaHbcB1d9BMhVwB3ViHQFK+Abu0LVGjGwNc3XeBmQfOM1ZEAa1T+MG6gR0g2xEmw9EBXC7FwqjTxlfuPj1mSQC++oLN1tubNs3CtHbo/M3at5ekH23knu2R5xT+xa8P1GRZ7Y8XAQMAHSDPnZnsd54yd4FQFstIpwWr/E8WrCRfbPjnu0h4bReOzVCFRPCBTjDWqqES379iNbP1KPzT0aEzvb32f/1SkKO8YrUEOF0/bEBBlhGp/MnZx+u+GeMF1vFuOj/5OwZ8U3j69dHjWbiT3f2ESeY6wJM5Qr/vT+RiFrnV4R9byOBhQJSmp8F9JWc6DgDqiXUfONqK1yikLgrF1zkgm8y0owl2421ELsiwVCZqiSrY9QKdpJKY7eDykDUOMp6QtDMQwKHTVbOYRCKoFJnsU46A3SyAqVU1UkYZeCCK9uI4IudboG6geqZ7M6UoOIXza6RG52hm7TcerWsFRAE4iw4FnpcAF11anEZWqOpqm1AtTjNZFJVguYiHV/HjMsF6nG9gx+ZBQ9SKxml/E4YkEZuFCwE46oP6owdUBxWR9I4oJliasSjWzXSaCjXzuozKMOE0NLrAR2qNRXTTsBPeg/sEMR3B80HpMdDsBMv5qKO+r+FdbbX/g+cVC275igUU5TbVWY1wqsCBeeZy+hsH2HF4NXQlWA6sx9lNRMQi1bNUEdVNKOxf6fJAQaMvfzKeCxlLwfzlZem1YzZoR5ZUVrtBSWNf95Qe9QIxSrbwh51qWQz98Ie1ffk32fUP2g+UG2xsq+Qz597rLxurx/OL6MPh6en08Pq8n//kqo/nV5h5fYf);lineShape=1;strokeColor=#FF66B3;" vertex="1" parent="1">
          <mxGeometry x="1121.1301037437738" y="810.0175776364749" width="96.07186831003739" height="76.2978619596759" as="geometry" />
        </mxCell>
        <mxCell id="2GjTwDZbmCHKGKUoSUDR-70" value="" style="shape=stencil(7VrLchw3DPyavaL4Jnh2nP9wleVIFUVyyXIS/72b2XA0BGd6y5UcfZN2gSHxajSwc4nvvtx/+Hx3Ce7L68vz73d/PXx8vb/EXy4hPDzd3708vOKvS3x/ie8+Pb/c/fby/PXp4/X/zx+6ZP/rj+c/+xP+vuo1Sb4rBfft+kEKkuo/n/x6lX98eNrJ+yheZwUn6olClVImhajiCj0h5lmhSdVzhSYxzDfK446H8lWyMRlOaOfyRVyd5HOWEpn8v08b8iVKDefyKs1N8jVII/f3QXQOgXqpjodgvpGqKAlBCBJmhYawExfBZj/7qGWJ5IToJc9Ba0kyMToipnFWwCNIFJCWMc1Gl/GIY4UsOttQmzgSt+ykzIlUvQSmkMTPpYDMCMSteXErUo+lKhR0PiFVmnv9BFOdjSYfbHBzHGKQnKiX0lzOIY/YH8ehSJgD5xutZyCWm+vBJ5qtACCTGt5JJqCH5MtziaoElqxe2pwZcHMm8k78/PzMy61Jnn2aRIlLIe8NRNLqhHlqgsyfrwN/3uQDyYkuPz8/SCH+6RBp5R3xP+wNJiNofCFfi5G/ES/Totxw2Fk+OGfkmb2QN4C9Qc2xfJBYjXxl8nG9T2P3QQOxz3ek4fSKtPI3oNf0G0/vA1AzLTZRe9OSD22g2Cmyz/cHokRyQPYDNLcEdSPFjxWipDnjOqQQkwH8FnczbZi9FcwKiEojRZDVtrOkoyMe8xw3QGRDLZQ98VIJSzsrg7sdK4BoGVxEJhJgqc6SzcxbQUXizJWM2DeS2p0TzFdCMkZyggI6DVZHyQR8dQVTwBMxGlQrmB6eaBxaGbxmU4icYRfbz6DAkq/V0S92CowzN12mhCiNpEZry5SQJDEvtTGm7ArIkxO8czbU0FAS6n7EDEuxDCA5UzC8AkgbmV/VclQoNGb1Nmvtpq9I8huR89kqJBaIsmSfUlKLdDWEsNvA0jUtbKQOAnemYMC1x4HZkGz/7JHmJ+RFwbFI4+s1XVkcsgWmXhBMoVis7CXHjK52BLtV1DqAbqeg7EqgnckazZocFAzvgYKyK7XR0nZxoDgDhSU1Eku+tgBTpdywG73UdOUg8IMKYWTOrqN4YoNWS7fRsxyxAT3LBA4Ex5ETqto4oO8W0uTQd80EA/rB4BudPZutCq5EFAriOlMy0A+2JcHXZu7EJ5kN29WCAGxwTCHbTU/mPQtfmyYHJssWN/koNRiQge2EpWUlRtV1EOGNuDZaDxjn43wlkHtmQwJGGPKdKZcGrzUl6j1d3MSlpvPN8d8EmmL3/zLOE4N/jvM/x/n/NM4ny1MD5VMgdGraAV+9epvPOjji6fg/39+HgQFn83w2C7w6jjwbt03bR8kEUsJ5a8FbCXg6hGEYtgSv8Xbj7IiEpszm8+LsBhzTc2A7BrVbmJK4l9L46WdbaAc6hKVmgUJ5paVlA96nXZ56dW43oN6MBsdlsdKUg6laMN0Nfsca2/y+O4JtJXyzM1Vn9+wHm2323RQcZdo6iPvm1kh/iUg2WcHHmMneLp+QSWzcWSbnzKPm7GyOWqAdRIr5ETLQ+2z9dz9yko6jlkb1aY340yfL7AAXnuWQX8Y7ji+dciz7v8byOtqdDWCZkX5kaTZTAl96+mLTGkDOlhFAdUtnOWyDx9mVZKWLKn8EqspOcDaz+wlsvLN8uZtAK7MsJrPEUAvy4M+M62z+2MeADV52S/C2ez+TNw5NlLssiz8MIIyL6NhU7uQjla9z50flswD/6PsNt+Xxx9vLFJ8eHh+v72Lsv7cvX+Cj64sb8f13);lineShape=1;strokeColor=#FF66B3;" vertex="1" parent="1">
          <mxGeometry x="1209.6103799403536" y="807.4030937612079" width="95.48707547234797" height="110.83059574087365" as="geometry" />
        </mxCell>
        <mxCell id="2GjTwDZbmCHKGKUoSUDR-71" value="" style="shape=stencil(7VrLbhs5EPwaXRskm89zkv2PAHHWwjp24Dj7+PutgUB62NSUoVsC+CbLXUN2Vz+KHJ30w4/7z9/vTsH9eHl++uvun/OXl/uTfjyFcH68v3s+v+DTST+d9MPXp+e7P5+ffj5+ufz9/fNmuX369vT39oR/LzgvJW2g4P67fNFy/+aPi/3D+XFn3yTpbB8lu2N7X6UaQBAlAKzgwwSoTXI9BkQnwQCyKAEkL2H2uQbJ+RiQvfg2AUqVHAmg9ecNQJRQjgElSakzwPUwXAVU/NtNgJzFER82F+cV4FXzBKAS57CmQp3GCskAgjjCQ0EuzVGKUQrxAUEs8wqapZJkzVXKTFyoEhsBhO7iADipBICY6OyDj53K6wDt2T/qQQrJjORE5/rJEggLsdjkDpQ12DvjsXhWbYs9OghJo3U/qD7CMezzbA8C2P6rBDX2jGHYN/v8QAotDnpe7Vmdga9s9+NIu0MzSu6W56N7hhv2j3wzfPH4wD77G+Kforh5P5xf2JuBk/n+s+XLIwKs5p20uSI3D0hGo3HGuTMqmitJ6RIkzhRrpTMT08LNK8QkjbfSOvuANGFViYmX5kaHODOam7dbwgqFbKkhiHNexCEFjlbwxunamTkCmGYNQGSAYFMVAMe0i9ooodtQsQNtUywgsbCmxQcACHFQW3XdEkm+Vq4AGhkgrdqCQ5SUhbVJXMLKpiwAdW4xcTziuiZ0oyeO7ONdcluiWQCTnSDCqEg0zswLIs1hSok6UUdQBqD2UX1Uo8VMci+RxLXGTuxO4zExAoAR5xnJRKIEjWeGFRSTshXQe4sF0C2N3jsA0PesVzZRvwBIYyrFHjC2LTEVmXvm7J1mK6TeGXdhzYRpANQAQBwZcgBEMxQxIJh0zr3R7QCBMI0oubmAcuzq+2hmxWgBlIfWdzwAShtT9Uu2RnpeQPK1ZUuRjVE8r9goOVai0R7DcqJqvuJ5JltzH0qHKywlSn3QJayVS4HQU20HYEMOPKhJjdaT5YhpW3EoUXa6rfbMgy29kd6281UqNkpaolSo6NsqLlgAdTrZgx6YDqyR3QwoVjukRqUAemswgMzTWy1xGIrsMPku+t5F3+8k+lo/eg6AUjkDqlcNR2/RSk/OfY3yIWcKAjXq+aA27Rs1Slsf+v0cVuQGU1hoQ22mWhFo4gNO1OY2Uz2VAtsZ39wp+bcuucwljle6Aly0CosK3fdbsfdbsV/6VmzR84nHp1r5UumIykt8UGCsq+QxkAag0QorsUuPUTHolezs6bpmHF0lUckGrW18iEPfH53Qs2mlnr5fqM220m0cMEGFqBv5r534Ix+8EYWFvtzaojQnavHSmE5VWzkQ04yH7Rw4TyjMLMdz25zQ4RUTtlHtuyoE2pOw6iIKX1XfVUBYLm+gydjg90HinHyQWCw1or0z2MQJIVrttQfsmQ7WfuM8ys3xDjkuwfcLENa8fbEF+8IiZA+2sE+EZGcrYRNjhOOl+hu/tVnEY+PnBGcbMOxZVmNemP3zt53OnipgH0ghe0swDgHsCHzre/m37fHh9UcAX88PD5ffEOz/b380gK8uPzjQT/8D);lineShape=1;strokeColor=#FF66B3;" vertex="1" parent="1">
          <mxGeometry x="1305.8659172151943" y="726.4064404770916" width="67.20162942795014" height="125.02389156871719" as="geometry" />
        </mxCell>
        <mxCell id="2GjTwDZbmCHKGKUoSUDR-72" value="" style="shape=stencil(7VnLbhQxEPyavbb8tvsc4D8iJSErQoJCeP09bVaejGsytdobSNyW0DXud1fbh3j19f76y+0huK8vz0+fbn8cb17uD/HdIYTj4/3t8/HFfh3i+0O8unt6vv34/PTt8eb07y/XXbL/+vz0vX/h5wlXorTcUcH9Ov0lRKnxz18+nAAPx8c1oEpNEyA6SQRQvbg2A4pkBoiifgIkL6EQQBEfZkCSygBV0mx0rFIyATSpbgZ4yY4AdHxvcaup1PYBzUmYveSbxEoBuc6AQFUyQJm9VCUQm00+QdzOKRTnxPCi3OIUQP6c/vh9x/VXneQdjXHzkhLIR5KmbTHvVd57Im/hKSDvmL1RfL1MvmbUJxD5JAH9E5l/Eha++ZPFN4uDBB2NYE8eK4C2CZOPUGLimL1F4vz9Mhz2tnwdx68KrLAAqHgAWAkTjdSLnzWyEkskhXSTEqGJJyppEp0B1reUFLEW7FsxU6+qjiJcACqNnODdksZLt7ZIMiMUCyc1GghtEuZMzYG7KWOocxZNNHJQC1l5bpThlCX5eKh794JsrdRLfWrOJ1TeH0vBdK1JGjkhmwJzw7CxmMiYtTD5eZBbz2QnRIvrfIIVOethQTFwzUqOuNV6CpxgoXSky/iMJWdFmIlbvRthWgBZGrEhIrWwfC8k9+Kox5W8Mh9t2qrjg8SjT+2ApvvyTlpD+UzlY0V5Twx2OEesvvn33Zx1WikRsTGpKB/p9zPIl+GBHX9Clzd5RnT8xp9lTOqdAAMv6vKkAxuNKyifaMJBY+n2Ev0T8jrzJ9M/bfSvdIIk5LGWD4nKo702s6i9TVE+0wIOm+830iHCG/WlxD9+LA5redaBcN8y+Up6ohvWreRZD3WjWlf+Z6vNZt6bvOf1CPLGxKh8iijP4muTdZP/hdp7mXxDXq1BGhsxERctdXQF7x7aTD1PBrFtejqHrJNnknJx8eACCLRHp4JF1ldmAjCCFYF9ZLpeGl+qc1s3flPYku/RS8agGolbvxWYTyhpjJ7djQ44muOApXEutLGMpXlvpQDamCPtpcZmYOnNy5q9t1IAIepsnFSbARKwcS+BkWs/vL6+/yGBU4eLXYz8pqJhhzReyC6MLA5ww2RDIrM4JEw+r4M17KVGnb1kVc6aqjFjYCGV3qr9jbcteBvy/7ZlyqCLb1si+vNfum3JyHqtbzB/bm4q+Lpr8u2y25mEe5bna4QBYEKFPCbKbkrMgHjGR2HwuAXQeNH7semtLrrZCVVxA098uewzdbbBJjvb8YuiW1Og21CxGZjQaFY5NvjhNsfcGhi1aKKzShY4RoANUBoCwhnAZn6w6syb9wMDeFL+3YbNswzrp1lxHvS9hNmgm4efQNcu4zZpAyjspcgjke+rD1HJADA0O4ClRkDG1lVi2RqQHhmAXZ6UDTfvbmXpffF72nmA/Xh9vrs7PjycXv/W/4/Pffan01NhfP8b);lineShape=1;strokeColor=#FF66B3;" vertex="1" parent="1">
          <mxGeometry x="1317.804063605111" y="754.6894362884625" width="95.751695066995" height="119.14839160195439" as="geometry" />
        </mxCell>
        <mxCell id="2GjTwDZbmCHKGKUoSUDR-73" value="" style="shape=stencil(rVjLctswDPwaXzEgwec5Tf8jM3FqT9044zh9/H2hqpRFSFr30JkcFJlLEovFSzt5eD88ve13nt+vl/PX/Y/j8/Wwk08774+vh/3leNWnnTzu5OHlfNl/uZw/Xp/H/9+ehpXD07fz92GHnyPOZVLI8Me/xjeeavrz4vO4/nR8na33QrVf7xJlABBHLnQA8VQKABTiHhAqOXBCCORzB0h6yQgAul/sADlQ5G1AFErcAYpaBQApES9O8ACQmWIPSIWkAkAg7v2QPCVAa07W0TFAWhWQpT9BLynQhtw7LkUScKWBJdezdIfWSTkTQOULPK2A2p9QEjlgQymUjacrebcNqL4pZwZICBCp9LRWpdUDgArBAByVDADV+qEKlLcCTEzrJRGteiVrQ6IKaNWfTQANVgHx6Y1DH9N6yQBoVdZztACUBIr6ISwASBreZg0FIBtyJU7WaI9DtLKltaCIUxuqddzfbLt1grVBcJrJlBbiy0B8hcmZKzEF5AfVZs+SujKiE3K78b+GqLP1oWAt1UCFrQ0ORVxuIT9jCWW+m5gngIfic8zE5k6BEoqgukgbCbpajQhGrrnlhS2aonG1FlbsCBYLQPpWV5veYcbDf0LETLFYswXEUIi2CGkMeWCFqJFG4bllt60OyAIcTByBrf40MzC4krZM0gNShrU98gLA0Oi4sEGbqAjkl2prX6a2rzTPbFVe44dbX7dVhIzAo4YhigixzUDCdbEsYk4bGlR5NfmFvvJmLREoH2t+7wElNKLXaY32hCFbImlMvfMEKDCAVN6u94NWygwCSCLVPkbVKjhCcCs5Mz+gLs4vmmPVL8r4OsMEM6QE6Idiw8GVtsPqeg0WM9NQBtsvkr1AJ7MtcB4mbmfZ8W1aWWez6WWytR237i0qPTWanMDu0YY9tzllPQAoe7McibPaRpXbyLHOzNRZz24D3OrEzkgMhzCnAxEbLuWOLnt21FVo/7VpHvjq/vSvD7dPBy/H02n88jD/3X5q0FfjZwp5/A0=);lineShape=1;strokeColor=#FF66B3;" vertex="1" parent="1">
          <mxGeometry x="1152.3318108520448" y="1029.634273364975" width="28.928169488083963" height="64.6727704186638" as="geometry" />
        </mxCell>
        <mxCell id="2GjTwDZbmCHKGKUoSUDR-74" value="" style="shape=stencil(7VrJcls3EPwaXqewL2fH+Q9XWY5UUSSXrGx/n35h8PTQIJtxVQ456EZRGA4wS0/PAKf44dv9p693p+C+vb48/3z3+8Pn1/tT/OEUwsPT/d3Lwys+neLHU/zw5fnl7qeX51+fPp///vppW7l9+uX5t+0X/jjLVWtxEwruz/MXpVkKf3/z43n948PTYX2xMK+v0Vy7vj5bK9P6FszL9X3+/e7HDi+ujxbo96t18fvJap7XewtifTXn+Ly1X1/vcbw6C0ClFwLZXGYLpSIEunnaUjMnNARvmXxcrCmBYHUWyNGiCAoI/GPzIZDgRycEovkwCUS4TZh10+BnAW+uSoE0mxU6e5ZWcrMGX80LPwRndQ49uDJrgTKHho/W1BmgYTbrFl3KSp5jyUOnDo3U53SzoB3t5iM08zciKc2xajHJuEjziYt1ZdLEcFRk9mN9L7SfpPafrUQ6r7RPGeD2Zs+oPFyszLnsd59fFqi8IURpEhqiMz97AD5vIoZiYMSGEYISKIuGPr65LNAtzwJxh4PLmB0sL2gRhdsSomDWkKqM04SityCeOkPqw+p74LlRKa4JcKGtFrRAmFMThcQpK1Wrs5Was6hKYVxqYRueuSzgWEMPutg6xtSuq2fc4WcXSNJKcWcrBwGv8gEJlJYtKQ1LLOHQTYV3sTibFRRGgXDca+Uu4GS0xhWVmoQxCFDGtXJrS4VCI1kTwbedgQR0AsFK5DgQsaId5+jQbhSva7HEtadK8EY+dMq4oBNoBYFiWcRSTlZmDblLcoh/xwWXFMyUMIjav0S+kizOwZe8hBkc0RHcN5kPm03mQ/sySsxlgTZIzqEoRtEDVM+spMojAEiDp/Wq/mxxM/9+lz1PLVxCcWIFShCg7EHNrWpHMNEsgBKaBLtFrvT5CMgnRQNaZu4JqK3iDK0zu4UGFdvA3UgaNDPZkH0hGl3ERc9sJYRqEWbtZfSCBwEv0q1X5g1hZxKXBRoTXJxBNQ29c37CSgqU+kI0EBqyAXWOe1yAs2J8UFHnBEVsqIyGANF0gIyqDjATxQY4oGoo4QjGvSg7h164T0+aaSCYCPegoSgB0LXCZ1D1p8flDE5vaW2K6+hJrwkQMKFuqx4XWyIoRntQBM5AgDW4Qd6vWYliCRnUBc70hS1tOaoSorIfbjRxfQHX0DUKdNaAQ0vo68wDtq5LZxxREzhOjek2AcrpJmsiBBJFq9NI9t0Cnq0ELqMEUILynKLgT6rdQJGjYSAEgqq7medW2ckCUZdxY8pag2MNSFGFrQWOm0EgFJnTEGg0Vaoy47ClzDMc1QBtbGlOB6fZT+dxo+6M0SgEnvkosoROhIdcAH9h0rowkwCUEiCGsKDQDuhNhA9AQGlAEZIlZVNnbeU+wmnwciV21eU4EySaijoaAdWblMxuQPI04efil4mGl6GdKycPNlkEC8hhmXRrYo8j8iw9yR7xfaKx84L3icb/f6KxNMaANkXfwLK50U0SKkFp85KiXtTojZbPVspAW5VAyzVL9iMcr5m1zRrSjXl0HNB7aDbkJUhfOGvV9zKF75aiLiioN1wfmsTW98uoM2rcvIyiu9///DKKxnvvl1G8IQJhfYnbljtZL+cG25yNZhlu+PyaALXQwEx1UxSWW5ZUZOu2tYI0kc36brwN6rhHRZQIuT3JINYTZK8X9qHzoY44BUdpeZRRJaVH7meKpCoJMcBnGeHqLsB7nnOh0ZdtzKAsBwKgukkoCGSlNKLrcr/KPTpIjxqx7nGzr++S3Xp289tU4OL6ZUrX9TsRNwrGISrUANdx9tcoHeDZAeggVFzH0Vnv651knWmE5IFZqFcricEI69ULkbwMC5ocbWUetmF9Vv2R5czrZdfJ0+3c5c1+ZUJb9HVv4/kl2jV129s4IUuQnGUn7Pv6JIGxjWJ0iB9VbRoPbEvVlyrf+bLt9np8eHtG9+Xh8fH8Cu/4f352h6/OT/bix78A);lineShape=1;strokeColor=#FF66B3;" vertex="1" parent="1">
          <mxGeometry x="1201.8923542284792" y="1006.6295407482826" width="116.72990967580226" height="51.85675091737429" as="geometry" />
        </mxCell>
        <mxCell id="2GjTwDZbmCHKGKUoSUDR-75" value="" style="shape=stencil(lVnJUlwxDPyauaq82zpn+Q+qQsJUCKQI2f4+7Zr48Sy/aZLbANPYklqtxaf45tvdzdfbU3Dfnp8eP9/+PH94vjvFt6cQzg93t0/nZ3w6xXen+Obj49Ptp6fH7w8fLj9/venf7J++PP7o/+HXBReC1NBRwf2+/CY2aZffvL8A7s8PO4Bv4soESF6SI4AkKc2AKM0TQJBkTijiGcCL0wmQnYRIAdHNgCipXQfAS222IcNvlQB0OcFLJm6NWVxcbCBGJyetzV5q4skJCJOaOCTJiVypifoZ4CQyQLGBw7/4G5ljALw+Gw03NBaHKnW2IQZRYnTwlnzRS2XUQOC8vVIkNvgqTa3RzEsAhCWBfOaA2UsInJIrga2aZ0CQyNyKG5srOckEgMAVb41OxIbuk2bdqsRLuHEzXArUaGhEnIUMOajkSkiXNtsQiijJaSSkm7kUkjhCvp7Bsw2gI9OlpMPrAwC1ZdoKG4IBgK3M6CJl9hLUthQCSMuVHGUrApdnLyFniQlghilAadh0/P+zBJPR4niYjYt0qNRx0MKoBJvBlSZPhkzOAFjsCbVLFVdnC+AiQu26xXQn9Y3Y0IJV7qy0XDW1JxSVRqKmcajoFmX4mZygIN58QktSGACKMZ/QGhUAXWxQSD3xkndI6LlIax7NzfERWdLMVdwykDu1LH5WgN2hx7HWUfW3I5SWxNJsPuBOzLFZbXXQSo1Ab2RPQD/GMsJLWfzKOj4IpYk1AIElNYRy9qvyXgYAU386g5nMqK0OADii3bChzn2AouiyOARb1sFXFmnEwQiNbo4+BsDrS0ZkdqVqk7SnEKOGDiLsjGYVrjjbFwPQSKQBaNXGgbUmHWBsSLQkFrfEASrA4qDjzztAYYAq2XCJDzQIXF0AkUU62vkEAJZAIJ/31gZlZdGNKr4DsI4PCVSXFGVcOkjRRDMOACszkdYg2JCM0YHng1/iEHjHFxcbPBfjfCACmcVhaR76CSxF/xeA9kQX5auErbXYIgdqsEm0xYP6wIaBFxXac4kVatB7EWPWJeIEnSt7U9r1KQYk055k2he3agGVL1rgJSMzFfxlbWIZCbk1cY4WRbQORu570rIap7YC9e6dnIAEMs03Rk1H8iFFSz5MQIFEGhfIc+A835v0cd7sTUaFOf6+2kGUN3Bozcsc50DLT5835vwsYxg//n4aXcVGPDoL5LLMM69IUhM/H+DTMOkaK4zFfUf4ShMwxyzwFWLnnRnVEydqs07qKw7eKpm5OHpe0yEYs4aBWJ6Vt2rdCuoW1rL60aDu9kRMh/tGxaRzovWwLylnlezrAeJWUDksg2him1l0UmaFqLSAbiPe9v1KlzjZbusgIHSWGfV+t+hiTUkZVWM3qrM1brUOionq3RKB6Ph6Es3vTLsuqISnfumqYBOzOGys3K0zIqNdsQtQWMUajLTsDvoemGVCXbxUXpvF7NZ32zJdE2EjYci1yABpIV4aU/K1ztCsuhPfmPYVzxy4PlYzLzlrQ+abNFDTbH373EGu1JljHjUqrVUgn9mYQpgzeyvyVob7sMUibZmR+cJ0GT8zn/WWDVHXfZafowfc6Rfz0PaKtKMRHemXZSnGBbYUs3Nhf91jrxnJ9pBINZb9fd+81EHWy/syXkd2ALaB9sv0DAAlURss3gFYqoGmWpcTWB30Y77ZAZhsh2XcfkXBwrLB7Y9rRJBCPAgcfUqLNpkj33MDUIoFMC4BYLZ6L69A14z+v7fofwDgw8vT98fz/f3l5Xz/d/tUjl9dntnjuz8=);lineShape=1;strokeColor=#FF66B3;" vertex="1" parent="1">
          <mxGeometry x="1360.7902630336434" y="924.518011182824" width="60.32636206536382" height="146.54932823480587" as="geometry" />
        </mxCell>
        <mxCell id="2GjTwDZbmCHKGKUoSUDR-76" value="" style="shape=stencil(7VjLUhtBDPwaX1XSPDVnQv6DKkxwhWDKmDz+Ptq4ZuPRsm2oyiEHbva6tZZarcfMJl493988bTeBn4+H/dftj93t8X4TP21C2D3ebw+7o33axOtNvLrbH7ZfDvuXx9vT96ebCTl9+rb/Pr3h58lOMpUyWQX+dXrCFPTPg88n/MPu8RzfiOOAD1TiOj4IKQ/4SjUDfKSYB7x5OH0FBmU0sCctAQNzuA4GMVFCLgmxDgYpUUMcKWUZDHKhWIBBpjS6VCqJAINAmkZWC3EDBkwypkETMQjasjSG0BiGYElyeHsDyEKiMnLalBREPHs74xvluo6P3dszPMpZ8CoSZmIGjFJbOFRAwEIx+IAbKBymWj2hCjLMi4ALFeD/QhAtk4A6m9mY8ZEyEBD7omnGGEgYL/hhSiBhxs+I10YCBLoQtFqbQPnNvk3USgUoNBQvISviBhiKzbdeaxMJUJSjbxMpkgKDUnoNzq0u9LS/TpL2nM7NNPR+/KqBGq3jODDeBLhkKnYxGEkgbVYlIg6P+oThXcgKZW1VG11jJEX+NK+7hv1vvk+I9H9cNWijQYCd1Ax0ZEjSpZDTYsRGzGlzSS4koDbNwBWzGaDmaKpwxXbZgMu7XCqU0yJolIf5fee0IpZsArs8hK6VVYOFNAJo8WYQRmk02GAM73seKcJXCsXhYcTzRHpzbbocVDgSTKjiejyc+dNK4PnJF2pzrH1bkxTNcF5MQctxwH/hKJLYN583xmCyg0lekGTCRvvvlIVFNed/aaDaHTibIgUIu7auy3lOGdGgdIr64rRhiqSUc3/fPGsDXJiT9GPQPM1txUXHCqXkxG2jDsQgtYt5VrfCDcba9mLDE6CMj5X8YyX/r1fy6MeB2nYK+MyvHHoLeL96/ovpAVUk+2ZdGLZS6+VpZDRz397WDhV5pCgx7O7WaXXsvVFgkVlX8dcheBs0A3arV4QbsP3sF1ShBMpmYsktRtyjWrvdaE54sC4N74XUL53W8MHvLRnjxekCnqKm94/+JDjzDe9Gh7VKJDvbK0fZmYNYps4fgXVp+DrGy/CCzDaUxA7P+LqLk8dfOIq/647yIt4+/L0Qvds9PJzuU89/9xeo9uh0+RqvfwM=);lineShape=1;strokeColor=#FF66B3;" vertex="1" parent="1">
          <mxGeometry x="1453.2568034062333" y="941.3202060915596" width="107.15084624963896" height="48.187223116999256" as="geometry" />
        </mxCell>
        <mxCell id="2GjTwDZbmCHKGKUoSUDR-77" value="" style="shape=stencil(rVfbbhtBCP2afUXDwNye0/Q/IsWprbp25Dht8/dhu5rNgndJK/VtLxxg4HCZge5e9g/PuyGGl+vl/H336/B43Q/0ZYjxcNrvLoerPA10P9Dd0/my+3Y5v54ep/fnh1FyfPpx/jlq+D3hGkHAERXD2/SFGTD/+fJ1AhwPpwWgJkikAJQhhW1AYchNAxCobAOyOBA1IEDGbUCK0IwFAqzbAEYo+gwcgWkbQAmYNaBBcSzEBkm7lCoEJ0qRoGhAzq4FTD0mHVAjYHMAASgoQJPMRCfTULWBVqB5iYag09YkRl7aAIOVrw7zCGLR8hXI8V+SbPxJXcOqvJDM+IO9Njbkg+ZEzW6KRV5nuAYoznnlb1LyJUF1SIrQtD8Fu4aNeKasGVehOfGUGtB8yAWyo7/07Cz0B4fRrf+d/Q+Ajn4hdNIOFYLMDgCBTUQrRCfDAjAlUAnISZkAkrZQa/+ydYZiSCc0dwANSBtoGZrjUekRWRRZdLpEgqLlMQSX1dRrdmHAq5q5SS0OwE7SAjTThWIfQBvyqP2ppfeBrarUCZA2yk6AArDWXwqwEx/s2mb5eVr9H3nhiz4A107zdUC1dUmtk3A9Ywx8M4/Za9TBdiI5lUc6ksagWY3RbY2c7KFzb67rrEZL69iHz7q8OKSzHHrz21pZmIy8VzQlA6Hxx2tEwkkz7OcArMs3QFM10JzRJzVo9GNxlzpZBcwGhVL2noUKWU9v4YQ3vaWNkC4E4SE6hT9uDybHxd8Pwk3tC3O9XvGxoMyAT32ypSM+Od1OwmSWFpaG5sW12L1xXGU/SbUBsD+WZe5XC2jeoRlivAF4M+1f7yB/AZCHjyvP0+F4nG5My//2iiSfpusV3b8D);lineShape=1;strokeColor=#FF66B3;" vertex="1" parent="1">
          <mxGeometry x="1417.5685002872037" y="936.3332001277836" width="59.21889987823307" height="21.623199781127564" as="geometry" />
        </mxCell>
        <mxCell id="2GjTwDZbmCHKGKUoSUDR-78" value="" style="shape=stencil(lVfLctswDPwaXTEkQBLkOU3/IzNxak9dO+O4bfL3haqRa1DWpr7JMpZ4LZbQIA9v26fXzcDh7Xw6ft/83j2ft4N8GZh3h+3mtDvb0yCPgzy8HE+bb6fjz8Pz9Pv1abQcn34cf40nvE+4GCnUEcXhY3oTKMrfF18n+/3ucGXPiVLr7ENYt0+NSnH2kbiu2xcmic4+Eed1+xqpiT8/kYKAausdsJDGdUBLFNkBhKkmAFBKPqSUSEBIrRF7QC5UeB0Qw6XoM6IoNZREo+qT0Do3/jYgU/UxNSEpACDUvIdWKILOtUAte0AlAVlXJe48GLkQN4Ri8twImK3aZvJfuRAwDpqpeDZZ9xUkoUzNx2SVhh4ipc4Dz2/WAFEdwCjPCkNiP6K1EAOCa6LsO2eVLigHpepzsLFFMzf+7fldA55qo+sCUBqUgd5DhACreqt90hlPELe+rBEBCqUuJGscGmo7z3uwIAWNXKLicxiDRCExhW4edD7idlkr5cWMCup06gGfzag1Ni1mtCB+l77Vo9CAMunlQriSMkayYXTt6iqUkArYjHYhBah9o4du5BRy4zYAecjzzF+ulDpL1ZoKdJtArlTBBJnOqG91sj6gXUDnNl1u3oui3wYYNbyS2fagQJjSghqx3bn+RIVcWu5XBmDgofZyH8ssPDft81zzK3u0MEkvATHDRSAuzjfZA/Gb7HZ3Lpb6xSbT7jNXuAIsosnQfJGszGvT/9WSoZouW0URSWPPhACn5d5N/nN7e/j32fCy2++nr47r//vPDHs1faLI4x8=);lineShape=1;strokeColor=#FF66B3;" vertex="1" parent="1">
          <mxGeometry x="1500.3097253742767" y="905.5250808174114" width="28.161108868312763" height="36.754552325051336" as="geometry" />
        </mxCell>
        <mxCell id="2GjTwDZbmCHKGKUoSUDR-79" value="" style="shape=stencil(lVfbbtswDP0avxISJZLSc9f9R4Gmi7EsKdJ0W/++9AwlEW1z6Jvj6Jg85OFFQ3p42z+97gYMb5fz6efuz/h82Q/p24A4Hve783jRpyE9Dunh5XTe/Tif3o/P8+/Xp+nk9PTr9Hv6wt8ZlyJknFAYPuY3EWr99+L7fP4wHu/OEwGn/nwEkW2AEBB3AESoaRtQBGrsAClBcVyqBJg7QCaI7AAKUM9BWdWyDYghQAgdgrnFbctE6U0IQ/BJmDCV3GyuxzW3PDVAFSDHgkRIfVwnJx0LSjGVHlBb8tcBAcRo6Ra4dTUpCbQmipO6XBvHOwA6PqkUsFrW0cl1RsjSAxhKdABaQSauatOpCLWA1AMSiMchQzGJQEgeoELo1Vdjq5GtPGCvvhqAyE11yBaQPACBLADsZFpUTNVyyA4HLQjONkrsJE4rsvZFXbXkHA4ikIxaybdAUIyWBKKTOFGPF2r1SHNp37urh+y4xGqBLMBrx8S2k00AJ3GkUlu0jew0psxAxZImr4ASINqwomch2uaqiRMfIAaQ/TajI8q4hO5YnADxKwCO1kK5imWrfec+0ypH9ixo1PsC0k+INyDEtkoVCztTkXOjeJ3U7M4sKhDMLsBNXethVZd6tSK3trAKwGL7UlTSjgW0Y1faWF1fHWyf5NZDVo9rW+2TTK7sFmtJhug4E9qWc41mM7dFtQ8+trGynqzWz2+bpDdoa9uH2vHQ5LceSLTOB4jeebGd0V9F1FsU+32HrdKNC/+9YJbF4uwuqV9dzP9/Xh9ut4CX8XCYLxH3/9tbg76abxzp8RM=);lineShape=1;strokeColor=#FF66B3;" vertex="1" parent="1">
          <mxGeometry x="1532.826556948693" y="880.9516132353738" width="15.12440267324824" height="56.324669509009645" as="geometry" />
        </mxCell>
        <mxCell id="2GjTwDZbmCHKGKUoSUDR-80" value="" style="shape=stencil(lVfbbtswDP0avxKiqOtz1/1HgaZLsCwp0nRb/740DDkWYx8gb7LMI/FyeNEgTx/7l/fd4N3H9XL+vft3eL3uB/kxeH847XeXw1VXgzwP8vR2vux+Xc6fp9fp+/1llBxXf85/xxP+TzhfKZUR5d3XtJMoTxs/J/nj4bSUz5RyJ8+64wAgUkodQI/IDADSzmsAUYAAgCfPHSBkGj83AdxMbIAYKVeoku9VSpkqAmQK0gFyIo7bAElUepWKp5i2Aaox90aXSA4YnQrl2AMCORCHXCj4HuAo5m3AqHHvpVwpghtKoposwAMvVSYJFlDADVW91LO1MDHgUi3kjJeEHDC6av5UG4eAbqhUTeCUS+iGYm+ojgIyeqbaDJgjsw7wLa4zIEAulULCFlAQQKjIHQCoNDKnz4cqVEFd0vxyYo0OAQCEoli3Cghc9iSGGrkl7RYgmQSK7Yh1QCDpE2gkH/LSXOcW9HZApdvvRQKhcj+S+aEULUpvbwERxOEW10WZSYje90ZrZHCKWrcGeAM719y+CDUDftfZKTOgtuBvGcGGfUwFlT7NoD4QuhNBC3oYoOxzBqBWgchF1/rHPArcHLfeFguxKWUJJil7yyb1K6p99xnkGoFX5Z3lUlKbobwhhvZhARa71p7m0SQ1F6x7yDY4HQxQyQhWXsc3lAvJ8pQT9E9uZX22lxKokdoX+lwOxOB0rQy9Nh52EeY77dswui4vJD3dHBzzONou5eAcyTohRSMP6a/V1+rDgP1+TtibPPK+Bqc4458AyDPO8mz8j0q1hteMLgJr1vi26OUjeUT+tbfIo/JdM9PF7eHzdjgep3fT8r99KOnW9MiS528=);lineShape=1;strokeColor=#FF66B3;" vertex="1" parent="1">
          <mxGeometry x="930.2775888932024" y="715.9855898377132" width="27.46913883556285" height="48.5758789579141" as="geometry" />
        </mxCell>
        <mxCell id="2GjTwDZbmCHKGKUoSUDR-81" value="" style="shape=stencil(nVfbctpADP0av2pWu6u9PKfpf2QmpDClkCGkl7+vXNcUCTgmfTNGx1rpHF12SA9v66fX1RDD2/Gw/7r6sXk+rof0aYhxs1uvDpujPg3pcUgPL/vD6sth/757nn6/Po2W49O3/ffxCz8nHFdKPKJi+DW9acThz4vPk/12s7P2f/+e7SNTaxBQkwEkpii3ATFQtx5ypdgBoFKwHkqiVG8DUqLaDaAK1XIbkCNl66ExBeBBEjULqI0EeCjFeyidWr4NaJHExiAaA+ChCYklWjIxA0CjJhaQKANAjxSzB1TAdBdK4mNA4uvVp1VO8r0O6JTtkUogBkfiEChY9Y1iitiFDUK5lIUgiqc6LaSpWTExCVDfSITTd6QOYhipdoBEcUFM4j0IqFGVa4kWoGWO9B0oOx4aZeChdmJXQQJ50IrsThsR9hn14AtCfaKgee4qJ4BKA/GQKVumtUYR002bqyvqRJKANNhnaQmQ51Z6fiSkVu3G3QeNiNMCCvEirchDv0YcBjgeVBoZdOPeZuWciw8BykXFqbxRY/ooQMWXbJa0BiMgTr9XbNDKfQFaKioNy/RIJQha9HtWS2fd89bgdcuGZpqBC90tnPp6gEOL1YNlrlY4tMqVAZHR7jAn/STWQBXtS346ZIZKCl55ui11cJ5A0cpiYR27GG943QtzYZ3SQwy6tmrYqjrD8RyJbbvTKQE6hW4TliueB+N1ffoNCTNbqbAzR1ruM+33mTP7NRifRoUs9QPBsszE3JdLLr6fYKr41AvuU8J/3CsW7PXh3yXmZbPdTneg8//9pUdfTRem9Pgb);lineShape=1;strokeColor=#FF66B3;" vertex="1" parent="1">
          <mxGeometry x="960.8894990278445" y="718.1978749395671" width="35.93134036045253" height="38.14385631769873" as="geometry" />
        </mxCell>
        <mxCell id="2GjTwDZbmCHKGKUoSUDR-82" value="" style="shape=stencil(lZfbctowEIafxrc7q9X5Ok3fIzMhxVMKGULa5u2zqmuwFvwzuTPmW1l7/KXBP7xtn143g/Db6Xj4ufkzPp+2g/82iIz77eY4nvRp8I+Df3g5HDc/jof3/fP0+/Wpke3p1+F3W+HvZMcUpRkJf0wvaiTH/958n/jduF/wnhL3vKMK+Ey5dHzJFN067wIV3xnkSjWsG4gaxM4gFaoFeJCJexdipBzXDSIT918IQi6tGyRPEjoDqSQeBOkc89nAFUqyblDU6T6sjimBKLUs9T5EEpC2mij2aXBUMuDVQdfxGjS0n0pBLA8cVj55wwvmCxsexkeLzPp7Z/1aDY/a4JoXmODG9/Hx5PH6uRr+Tr5Sn69AAkq65YsNH3A8XTW8r4AvNj6BHBgTypsx4XF+C2UbT8brp77BhDzmcx9PRxH7e1WfFcygFp9o+AAmSot/MDwa68p7uz5jPia7Pt5Pvto/GNKtf21/wXzVeeZf+ATq3zFbFdAE4w2ZBGgBoQSrA8HwGQf0/34XDYAKQhvS8gEH6Gt8otIXdIISVsVq3rlCbitYtANClb+CgKpGBiOqQhWrsBlx3lPEOh+MzidYpHqSMCKWtKqAQRPdvkqzn/vudpmqQb8lVX5UpmVW9XMWBOpwIO7HaBN+wOuU6qvo0qgrvJGlReOtGJiktcYDjcy2Ki5KuMJLtTzKMc8nvQXPIGPqnQlQmU9Sa7zxN0MhuBpbyqMK4hsJRoddtidR5dFB8XwMW9wfMjjYMPlkebz/r91P7vP6cLkMvYy73XSXWv5vL0/6arp4+cdP);lineShape=1;strokeColor=#FF66B3;" vertex="1" parent="1">
          <mxGeometry x="1020.2673728637828" y="773.1509794713998" width="271.02298073862585" height="80.43779203472079" as="geometry" />
        </mxCell>
        <mxCell id="2GjTwDZbmCHKGKUoSUDR-83" value="" style="shape=stencil(lVfLctswDPwaXTEkwec5Tf8jM3FqTV074zht8/eBqtI2IWkj3WR5IeKxC4AdP7ztn153nTNvl/Pp5+5P/3zZd/ytc64/7nfn/iJPHT92/PByOu9+nE/vx+fx9+vTgByefp1+D1/4O9oZim4wcuZjfFECxfDvzfcRf+iPd3hPqbR4S94s462lFBuD7MnmZQPnKKTGIDE5v2zAkUIbQijk7bJBcGTbGLynwMsGMZFrY2BTz5w1SIVybgxspgCCzoUMt2mlAmIuXh/gyYCqlUy+DdnAnAo+W4U3IOBSyPpteB+1P6ACgk9O4SPyX9LX+m8h6awRf40yyDiA0hbAkQcHCD4rCpEFshF89AofAacFz/r7BRFiQjghUIGESEbjUX5y7Qo3fxImnA0K77A/ql6uOjiPT1VPN/wXgpnwgbE/yn9TFbSEZy1Ixv6o/Ath05b6Xgm+kj+mKnolP81G/hsqKJ8TfVmKaMxMBezI4QSpDuGo4ASpDsTkscC8FuT/DKzHo+8H3aETJUA4mTCl9d9KRwEOZUNJdThHDE6IUwl7coAT4doCrz1FVAFqwIl8uxpErqN8fpdgCq1LKUHZW6eDztIIgA6kCmpuhyqk+QMoqvWpwL4oyxVrfAGD0uoa3Alj1kDaVNpygKlj6D4AiOes8R4MDtkDjMZj/43yXzYtwNJJmxgmA+gTc3i0XE79iTXDK+ONNWMr8xmoAMJt3e+/xsvD7TLx0h8O413k/n99+ZBX48WFHz8B);lineShape=1;strokeColor=#FF66B3;" vertex="1" parent="1">
          <mxGeometry x="1150.5641818403524" y="860.8305795465672" width="173.98412636222085" height="87.61948908673958" as="geometry" />
        </mxCell>
        <mxCell id="2GjTwDZbmCHKGKUoSUDR-84" value="" style="shape=stencil(rZfdbtswDIWfxreERP1fd917FGi6BMuSIk239e1Lz0hSHdfHG7A7x/ko8+dQlIZw97J9eN4M6l7Op+P3za/d43k7hC+D6u6w3Zx2Z3sawv0Q7p6Op8230/H18Dj9fn4YyfHpx/HnuMLvyc6JxtFI3dv0olXR/OfN14nf7w4feJUcej5JIHyS5nveiw/LvFdxuTOoQZwjDjlpqTMoXhLxKKj4/gupSKnLBjGJ9jFHvUT1ecxNXO0MtEprywbFXOpj8IVm1XISIEtSSZIs6cl1fJBcCJ+Rt6oxvknseSdOKZ8y8sz/JsUjT0pmfE3AK1Gd8S0CHxPnG/CFKOIzngli5EEQotyfinzk9SoKfF6pVwG+8HpFj+vzeDUDnzjvI8bL8+9w/RU9u77lrV48Xof6yVxvHvUcuJ4Vec/5gPp3XD9p1l883lyQj1yfM/95/tssPyt8xfwTPXt3je9mUFcaEhvAkw16DLgBH1c2OFw/8QLnWQP/Tz6jP3qp4NKAqX3D2NAk69sAK7Bh8QrbiEyQ0EorZkM49ZIItqcTAxvzEHKMdAjbQaL0TW/fVHZUsZr2BhZVI1mywxC0WY0Sia5tbMPpTOk+Gi5T5cpnmlRrkt6fUedkn3NY5dugXeBRpY5vRNeS/r0BHJxuo3aBx/OxRUwj8DOeTT6Hg2nciqn/TpFnjTbb58ZRRePF9a3NiOLm/lfJ1H/MT6WT+1/vJ+u8PdwuQ0+7/X66S338Hy9P9mq6eIX7dw==);lineShape=1;strokeColor=#FF66B3;" vertex="1" parent="1">
          <mxGeometry x="1271.6927412671557" y="928.1139228602756" width="366.8749909475904" height="210.0373181879081" as="geometry" />
        </mxCell>
      </root>
    </mxGraphModel>
  </diagram>
</mxfile>
